<svg width="1200" height="480" viewBox="0 0 1200 480" xmlns="http://www.w3.org/2000/svg">
  <defs>
    <linearGradient id="bg" x1="0" y1="0" x2="1" y2="1" gradientUnits="objectBoundingBox">
      <stop offset="0%" stop-color="#070d1f"/>
      <stop offset="100%" stop-color="#0d1a35"/>
    </linearGradient>
    <linearGradient id="accent" x1="0" y1="0" x2="1" y2="0" gradientUnits="objectBoundingBox">
      <stop offset="0%" stop-color="#6366f1"/>
      <stop offset="100%" stop-color="#8b5cf6"/>
    </linearGradient>
    <linearGradient id="coreGrad" x1="0" y1="0" x2="1" y2="0" gradientUnits="objectBoundingBox">
      <stop offset="0%" stop-color="#6366f1" stop-opacity="0.25"/>
      <stop offset="50%" stop-color="#8b5cf6" stop-opacity="0.25"/>
      <stop offset="100%" stop-color="#6366f1" stop-opacity="0.25"/>
    </linearGradient>
    <pattern id="dots" x="0" y="0" width="30" height="30" patternUnits="userSpaceOnUse">
      <circle cx="1.5" cy="1.5" r="1.5" fill="#1e293b" opacity="0.5"/>
    </pattern>
  </defs>

  <rect width="1200" height="480" fill="url(#bg)"/>
  <rect width="1200" height="480" fill="url(#dots)"/>
  <rect x="0" y="0" width="1200" height="4" fill="url(#accent)"/>

  <!-- Title -->
  <text x="600" y="38" font-family="system-ui,-apple-system,sans-serif" font-size="18" font-weight="600" fill="#f8fafc" text-anchor="middle">Package Ecosystem</text>
  <text x="600" y="58" font-family="system-ui,-apple-system,sans-serif" font-size="12" fill="#475569" text-anchor="middle">@power-seo/core is the shared foundation used by all packages</text>

  <!-- Layer labels -->
  <text x="44" y="106" font-family="system-ui,-apple-system,sans-serif" font-size="10" fill="#475569" text-anchor="middle" transform="rotate(-90,44,106)">YOUR APP</text>
  <text x="44" y="230" font-family="system-ui,-apple-system,sans-serif" font-size="10" fill="#475569" text-anchor="middle" transform="rotate(-90,44,230)">PACKAGES</text>
  <text x="44" y="380" font-family="system-ui,-apple-system,sans-serif" font-size="10" fill="#475569" text-anchor="middle" transform="rotate(-90,44,380)">CORE</text>

  <!-- Layer 1: User apps -->
  <rect x="68" y="72" width="1112" height="52" rx="8" fill="#111827" stroke="#1e293b" stroke-width="1"/>
  <!-- App cards -->
  <rect x="90"  y="82" width="140" height="32" rx="5" fill="#1e293b" stroke="#334155" stroke-width="1"/>
  <text x="160" y="102" font-family="system-ui,-apple-system,sans-serif" font-size="12" fill="#94a3b8" text-anchor="middle">Next.js App</text>

  <rect x="244" y="82" width="120" height="32" rx="5" fill="#1e293b" stroke="#334155" stroke-width="1"/>
  <text x="304" y="102" font-family="system-ui,-apple-system,sans-serif" font-size="12" fill="#94a3b8" text-anchor="middle">Remix</text>

  <rect x="378" y="82" width="120" height="32" rx="5" fill="#1e293b" stroke="#334155" stroke-width="1"/>
  <text x="438" y="102" font-family="system-ui,-apple-system,sans-serif" font-size="12" fill="#94a3b8" text-anchor="middle">Astro</text>

  <rect x="512" y="82" width="120" height="32" rx="5" fill="#1e293b" stroke="#334155" stroke-width="1"/>
  <text x="572" y="102" font-family="system-ui,-apple-system,sans-serif" font-size="12" fill="#94a3b8" text-anchor="middle">Express</text>

  <rect x="646" y="82" width="140" height="32" rx="5" fill="#1e293b" stroke="#334155" stroke-width="1"/>
  <text x="716" y="102" font-family="system-ui,-apple-system,sans-serif" font-size="12" fill="#94a3b8" text-anchor="middle">SvelteKit</text>

  <rect x="800" y="82" width="140" height="32" rx="5" fill="#1e293b" stroke="#334155" stroke-width="1"/>
  <text x="870" y="102" font-family="system-ui,-apple-system,sans-serif" font-size="12" fill="#94a3b8" text-anchor="middle">Any Framework</text>

  <!-- Arrows layer1 → layer2 -->
  <line x1="600" y1="124" x2="600" y2="148" stroke="#334155" stroke-width="1" stroke-dasharray="4,3"/>
  <polygon points="596,146 600,154 604,146" fill="#334155"/>

  <!-- Layer 2: Packages -->
  <rect x="68" y="154" width="1112" height="130" rx="8" fill="#111827" stroke="#1e293b" stroke-width="1"/>

  <!-- Package cards row 1 -->
  <rect x="90"  y="168" width="148" height="42" rx="6" fill="#1a1f35" stroke="#6366f1" stroke-opacity="0.4" stroke-width="1"/>
  <text x="100" y="185" font-family="system-ui,-apple-system,sans-serif" font-size="10" fill="#6366f1">react</text>
  <text x="100" y="200" font-family="system-ui,-apple-system,sans-serif" font-size="11" fill="#94a3b8">@power-seo/react</text>

  <rect x="252" y="168" width="148" height="42" rx="6" fill="#1a1f35" stroke="#8b5cf6" stroke-opacity="0.4" stroke-width="1"/>
  <text x="262" y="185" font-family="system-ui,-apple-system,sans-serif" font-size="10" fill="#8b5cf6">meta</text>
  <text x="262" y="200" font-family="system-ui,-apple-system,sans-serif" font-size="11" fill="#94a3b8">@power-seo/meta</text>

  <rect x="414" y="168" width="148" height="42" rx="6" fill="#1a1f35" stroke="#06b6d4" stroke-opacity="0.4" stroke-width="1"/>
  <text x="424" y="185" font-family="system-ui,-apple-system,sans-serif" font-size="10" fill="#06b6d4">schema</text>
  <text x="424" y="200" font-family="system-ui,-apple-system,sans-serif" font-size="11" fill="#94a3b8">@power-seo/schema</text>

  <rect x="576" y="168" width="148" height="42" rx="6" fill="#1a1f35" stroke="#10b981" stroke-opacity="0.4" stroke-width="1"/>
  <text x="586" y="185" font-family="system-ui,-apple-system,sans-serif" font-size="10" fill="#10b981">sitemap</text>
  <text x="586" y="200" font-family="system-ui,-apple-system,sans-serif" font-size="11" fill="#94a3b8">@power-seo/sitemap</text>

  <rect x="738" y="168" width="148" height="42" rx="6" fill="#1a1f35" stroke="#f59e0b" stroke-opacity="0.4" stroke-width="1"/>
  <text x="748" y="185" font-family="system-ui,-apple-system,sans-serif" font-size="10" fill="#f59e0b">audit</text>
  <text x="748" y="200" font-family="system-ui,-apple-system,sans-serif" font-size="11" fill="#94a3b8">@power-seo/audit</text>

  <rect x="900" y="168" width="148" height="42" rx="6" fill="#1a1f35" stroke="#ec4899" stroke-opacity="0.4" stroke-width="1"/>
  <text x="910" y="185" font-family="system-ui,-apple-system,sans-serif" font-size="10" fill="#ec4899">ai</text>
  <text x="910" y="200" font-family="system-ui,-apple-system,sans-serif" font-size="11" fill="#94a3b8">@power-seo/ai</text>

  <!-- Package cards row 2 -->
  <rect x="90"  y="222" width="148" height="42" rx="6" fill="#1a1f35" stroke="#6366f1" stroke-opacity="0.3" stroke-width="1"/>
  <text x="100" y="239" font-family="system-ui,-apple-system,sans-serif" font-size="10" fill="#6366f1">analytics</text>
  <text x="100" y="254" font-family="system-ui,-apple-system,sans-serif" font-size="11" fill="#94a3b8">@power-seo/analytics</text>

  <rect x="252" y="222" width="148" height="42" rx="6" fill="#1a1f35" stroke="#8b5cf6" stroke-opacity="0.3" stroke-width="1"/>
  <text x="262" y="239" font-family="system-ui,-apple-system,sans-serif" font-size="10" fill="#8b5cf6">images</text>
  <text x="262" y="254" font-family="system-ui,-apple-system,sans-serif" font-size="11" fill="#94a3b8">@power-seo/images</text>

  <rect x="414" y="222" width="148" height="42" rx="6" fill="#1a1f35" stroke="#06b6d4" stroke-opacity="0.3" stroke-width="1"/>
  <text x="424" y="239" font-family="system-ui,-apple-system,sans-serif" font-size="10" fill="#06b6d4">redirects</text>
  <text x="424" y="254" font-family="system-ui,-apple-system,sans-serif" font-size="11" fill="#94a3b8">@power-seo/redirects</text>

  <rect x="576" y="222" width="148" height="42" rx="6" fill="#1a1f35" stroke="#10b981" stroke-opacity="0.3" stroke-width="1"/>
  <text x="586" y="239" font-family="system-ui,-apple-system,sans-serif" font-size="10" fill="#10b981">readability</text>
  <text x="586" y="254" font-family="system-ui,-apple-system,sans-serif" font-size="11" fill="#94a3b8">@power-seo/readability</text>

  <rect x="738" y="222" width="148" height="42" rx="6" fill="#1a1f35" stroke="#f59e0b" stroke-opacity="0.3" stroke-width="1"/>
  <text x="748" y="239" font-family="system-ui,-apple-system,sans-serif" font-size="10" fill="#f59e0b">links</text>
  <text x="748" y="254" font-family="system-ui,-apple-system,sans-serif" font-size="11" fill="#94a3b8">@power-seo/links</text>

  <rect x="900" y="222" width="148" height="42" rx="6" fill="#1a1f35" stroke="#ec4899" stroke-opacity="0.3" stroke-width="1"/>
  <text x="910" y="239" font-family="system-ui,-apple-system,sans-serif" font-size="10" fill="#ec4899">+8 more</text>
  <text x="910" y="254" font-family="system-ui,-apple-system,sans-serif" font-size="11" fill="#475569">search-console · preview…</text>

  <!-- Arrows layer2 → layer3 -->
  <line x1="600" y1="284" x2="600" y2="308" stroke="#6366f1" stroke-width="1" stroke-dasharray="4,3" opacity="0.5"/>
  <polygon points="596,306 600,314 604,306" fill="#6366f1" opacity="0.5"/>

  <!-- Layer 3: Core (foundation) -->
  <rect x="68" y="314" width="1112" height="100" rx="8" fill="url(#coreGrad)" stroke="#6366f1" stroke-opacity="0.5" stroke-width="1.5"/>
  <!-- inner glow line -->
  <rect x="68" y="314" width="1112" height="3" rx="2" fill="url(#accent)" opacity="0.6"/>

  <text x="600" y="358" font-family="system-ui,-apple-system,sans-serif" font-size="22" font-weight="700" fill="#f8fafc" text-anchor="middle">@power-seo/core</text>
  <text x="600" y="382" font-family="system-ui,-apple-system,sans-serif" font-size="13" fill="#94a3b8" text-anchor="middle">40+ utilities  ·  60+ TypeScript types  ·  Zero runtime dependencies  ·  Framework-agnostic</text>

  <!-- corner badges -->
  <rect x="82"  y="322" width="90" height="20" rx="4" fill="#6366f1" fill-opacity="0.2"/>
  <text x="127" y="335" font-family="system-ui,-apple-system,sans-serif" font-size="10" fill="#a5b4fc" text-anchor="middle">npm v1.0.3</text>

  <rect x="1028" y="322" width="140" height="20" rx="4" fill="#6366f1" fill-opacity="0.2"/>
  <text x="1098" y="335" font-family="system-ui,-apple-system,sans-serif" font-size="10" fill="#a5b4fc" text-anchor="middle">Zero dependencies</text>

  <!-- Bottom bar -->
  <rect x="0" y="476" width="1200" height="4" fill="url(#accent)"/>
</svg>
