<svg xmlns="http://www.w3.org/2000/svg" width="900" height="500" viewBox="0 0 900 500">
  <defs>
    <style>
      .font-mono { font-family: 'JetBrains Mono', 'Fira Code', 'Cascadia Code', monospace; }
      .font-ui { font-family: 'Inter', -apple-system, BlinkMacSystemFont, 'Segoe UI', sans-serif; }
    </style>
    <marker id="arr" markerWidth="10" markerHeight="7" refX="9" refY="3.5" orient="auto">
      <polygon points="0 0, 10 3.5, 0 7" fill="#a855f7"/>
    </marker>
  </defs>

  <!-- Background -->
  <rect width="900" height="500" fill="#0d1117"/>

  <!-- Background grid -->
  <defs>
    <pattern id="grid3" width="30" height="30" patternUnits="userSpaceOnUse">
      <path d="M 30 0 L 0 0 0 30" fill="none" stroke="#161b22" stroke-width="0.8"/>
    </pattern>
  </defs>
  <rect width="900" height="500" fill="url(#grid3)"/>

  <!-- Title -->
  <text x="450" y="36" class="font-ui" font-size="15" font-weight="600" fill="#6b7280" text-anchor="middle">parseLLMResponse() — Robust Format Handling</text>

  <!-- === LEFT PANELS === -->

  <!-- Panel 1: Markdown format -->
  <rect x="30" y="60" width="270" height="110" rx="8" fill="#161b22" stroke="#30363d" stroke-width="1.5"/>
  <!-- Panel header -->
  <rect x="30" y="60" width="270" height="32" rx="8" fill="#21262d"/>
  <rect x="30" y="80" width="270" height="12" fill="#21262d"/>
  <circle cx="50" cy="76" r="4" fill="#4b5563"/>
  <text x="64" y="80" class="font-ui" font-size="11" font-weight="600" fill="#9ca3af">Markdown format</text>
  <text x="44" y="108" class="font-mono" font-size="10" fill="#e2e8f0">**Option 1:** Discover the</text>
  <text x="44" y="124" class="font-mono" font-size="10" fill="#e2e8f0">best TypeScript SEO lib...</text>
  <text x="44" y="140" class="font-mono" font-size="10" fill="#6b7280">**Option 2:** Build SEO-ready</text>
  <text x="44" y="156" class="font-mono" font-size="10" fill="#6b7280">apps with zero config...</text>

  <!-- Panel 2: Numbered list -->
  <rect x="30" y="195" width="270" height="110" rx="8" fill="#161b22" stroke="#30363d" stroke-width="1.5"/>
  <rect x="30" y="195" width="270" height="32" rx="8" fill="#21262d"/>
  <rect x="30" y="215" width="270" height="12" fill="#21262d"/>
  <circle cx="50" cy="211" r="4" fill="#4b5563"/>
  <text x="64" y="215" class="font-ui" font-size="11" font-weight="600" fill="#9ca3af">Numbered list</text>
  <text x="44" y="243" class="font-mono" font-size="10" fill="#e2e8f0">1. Discover the best TypeScript</text>
  <text x="44" y="259" class="font-mono" font-size="10" fill="#e2e8f0">   SEO library for Next.js</text>
  <text x="44" y="275" class="font-mono" font-size="10" fill="#6b7280">2. Build SEO-ready apps</text>
  <text x="44" y="291" class="font-mono" font-size="10" fill="#6b7280">   with zero configuration</text>

  <!-- Panel 3: Raw JSON -->
  <rect x="30" y="330" width="270" height="120" rx="8" fill="#161b22" stroke="#30363d" stroke-width="1.5"/>
  <rect x="30" y="330" width="270" height="32" rx="8" fill="#21262d"/>
  <rect x="30" y="350" width="270" height="12" fill="#21262d"/>
  <circle cx="50" cy="346" r="4" fill="#4b5563"/>
  <text x="64" y="350" class="font-ui" font-size="11" font-weight="600" fill="#9ca3af">Raw JSON</text>
  <text x="44" y="378" class="font-mono" font-size="10" fill="#e2e8f0">{"descriptions": [</text>
  <text x="44" y="394" class="font-mono" font-size="10" fill="#86efac">  "Discover the best</text>
  <text x="44" y="410" class="font-mono" font-size="10" fill="#86efac">   TypeScript SEO..."</text>
  <text x="44" y="426" class="font-mono" font-size="10" fill="#e2e8f0">]}</text>

  <!-- === ARROWS === -->
  <!-- Arrow from Panel 1 to output -->
  <line x1="300" y1="115" x2="510" y2="190" stroke="#a855f7" stroke-width="1.8" marker-end="url(#arr)" opacity="0.9"/>

  <!-- Arrow from Panel 2 to output -->
  <line x1="300" y1="250" x2="510" y2="255" stroke="#a855f7" stroke-width="1.8" marker-end="url(#arr)" opacity="0.9"/>

  <!-- Arrow from Panel 3 to output -->
  <line x1="300" y1="385" x2="510" y2="315" stroke="#a855f7" stroke-width="1.8" marker-end="url(#arr)" opacity="0.9"/>

  <!-- Function label in center -->
  <rect x="340" y="226" width="148" height="28" rx="14" fill="#1a0a2e" stroke="#a855f7" stroke-width="1"/>
  <text x="414" y="244" class="font-mono" font-size="11" font-weight="700" fill="#a855f7" text-anchor="middle">parseLLMResponse()</text>

  <!-- === RIGHT PANEL: Output === -->
  <rect x="530" y="100" width="340" height="260" rx="8" fill="#0f1a0f" stroke="#a855f7" stroke-width="2"/>
  <!-- Output header -->
  <rect x="530" y="100" width="340" height="40" rx="8" fill="#1a1025"/>
  <rect x="530" y="128" width="340" height="12" fill="#1a1025"/>
  <text x="700" y="126" class="font-mono" font-size="13" font-weight="700" fill="#a855f7" text-anchor="middle">MetaDescriptionResult[]</text>
  <line x1="530" y1="140" x2="870" y2="140" stroke="#a855f7" stroke-width="0.5" opacity="0.4"/>

  <!-- Output object code -->
  <text x="550" y="166" class="font-mono" font-size="12" fill="#9ca3af">// Parsed output</text>
  <text x="550" y="188" class="font-mono" font-size="12" fill="#e2e8f0">{</text>
  <text x="566" y="208" class="font-mono" font-size="12" fill="#93c5fd">  text:</text>
  <text x="624" y="208" class="font-mono" font-size="11" fill="#86efac">"Discover the best</text>
  <text x="624" y="222" class="font-mono" font-size="11" fill="#86efac">   TypeScript..."</text>
  <text x="566" y="242" class="font-mono" font-size="12" fill="#93c5fd">  charCount:</text>
  <text x="668" y="242" class="font-mono" font-size="12" fill="#fbbf24">142</text>
  <text x="566" y="262" class="font-mono" font-size="12" fill="#93c5fd">  keyphrasePresent:</text>
  <text x="766" y="262" class="font-mono" font-size="12" fill="#22d3ee">true</text>
  <text x="566" y="282" class="font-mono" font-size="12" fill="#93c5fd">  confidence:</text>
  <text x="680" y="282" class="font-mono" font-size="12" fill="#fbbf24">0.94</text>
  <text x="550" y="302" class="font-mono" font-size="12" fill="#e2e8f0">}</text>

  <!-- Checkmark icon -->
  <circle cx="848" cy="232" r="16" fill="#166534"/>
  <text x="848" y="238" class="font-ui" font-size="16" fill="#22c55e" text-anchor="middle">✓</text>

  <!-- Caption -->
  <text x="450" y="462" class="font-ui" font-size="14" fill="#ffffff" text-anchor="middle">parseLLMResponse() handles any format. Always typed.</text>
</svg>
