<svg width="1200" height="480" viewBox="0 0 1200 480" xmlns="http://www.w3.org/2000/svg">
  <defs>
    <linearGradient id="bg" x1="0" y1="0" x2="1" y2="1" gradientUnits="objectBoundingBox">
      <stop offset="0%" stop-color="#070d1f"/><stop offset="100%" stop-color="#0d1a2e"/>
    </linearGradient>
    <linearGradient id="accent" x1="0" y1="0" x2="1" y2="0" gradientUnits="objectBoundingBox">
      <stop offset="0%" stop-color="#06b6d4"/><stop offset="100%" stop-color="#6366f1"/>
    </linearGradient>
    <pattern id="dots" width="30" height="30" patternUnits="userSpaceOnUse">
      <circle cx="1.5" cy="1.5" r="1.5" fill="#1e293b" opacity="0.45"/>
    </pattern>
  </defs>
  <rect width="1200" height="480" fill="url(#bg)"/>
  <rect width="1200" height="480" fill="url(#dots)"/>
  <rect x="0" y="0" width="1200" height="4" fill="url(#accent)"/>

  <text x="600" y="36" font-family="system-ui,-apple-system,sans-serif" font-size="16" font-weight="600" fill="#f8fafc" text-anchor="middle">SERP Feature Predictor — What You Can Build</text>
  <text x="600" y="54" font-family="system-ui,-apple-system,sans-serif" font-size="12" fill="#475569" text-anchor="middle">analyzeSerpEligibility() → rich result opportunity dashboard — no LLM needed</text>

  <!-- Browser mockup -->
  <rect x="40" y="70" width="1120" height="376" rx="10" fill="#0d1525" stroke="#1e293b" stroke-width="1"/>
  <rect x="40" y="70" width="1120" height="34" rx="10" fill="#111827"/>
  <rect x="40" y="90" width="1120" height="14" fill="#111827"/>
  <circle cx="62" cy="87" r="5" fill="#ef4444" opacity="0.6"/>
  <circle cx="80" cy="87" r="5" fill="#f59e0b" opacity="0.6"/>
  <circle cx="98" cy="87" r="5" fill="#10b981" opacity="0.6"/>

  <!-- Page header -->
  <text x="66" y="128" font-family="system-ui,-apple-system,sans-serif" font-size="14" font-weight="700" fill="#f8fafc">SERP Feature Opportunities</text>
  <text x="66" y="144" font-family="system-ui,-apple-system,sans-serif" font-size="10" fill="#475569">Analysing: /blog/nextjs-seo-optimization · 6 features checked</text>

  <!-- Feature cards grid 3x2 -->
  <!-- Row 1 -->

  <!-- FAQ Rich Result -->
  <rect x="56" y="158" width="342" height="116" rx="8" fill="#0a2a1e" stroke="#10b981" stroke-width="1.5"/>
  <rect x="56" y="158" width="342" height="4" rx="2" fill="#10b981"/>
  <text x="74" y="182" font-family="system-ui,-apple-system,sans-serif" font-size="12" font-weight="600" fill="#f8fafc">FAQ Rich Result</text>
  <!-- likelihood bar -->
  <text x="74" y="200" font-family="system-ui,-apple-system,sans-serif" font-size="10" fill="#64748b">Likelihood</text>
  <rect x="74" y="206" width="240" height="8" rx="4" fill="#1e293b"/>
  <rect x="74" y="206" width="168" height="8" rx="4" fill="#10b981" opacity="0.9"/>
  <text x="322" y="213" font-family="system-ui,-apple-system,sans-serif" font-size="10" font-weight="600" fill="#6ee7b7">70%</text>
  <text x="74" y="228" font-family="system-ui,-apple-system,sans-serif" font-size="10" fill="#6ee7b7">✓  FAQPage schema detected</text>
  <text x="74" y="244" font-family="system-ui,-apple-system,sans-serif" font-size="10" fill="#6ee7b7">✓  Question-answer structure found</text>
  <text x="74" y="260" font-family="system-ui,-apple-system,sans-serif" font-size="10" fill="#f59e0b">△  Add more Q&amp;A pairs for best results</text>

  <!-- HowTo -->
  <rect x="430" y="158" width="342" height="116" rx="8" fill="#0f1729" stroke="#06b6d4" stroke-width="1.5"/>
  <rect x="430" y="158" width="342" height="4" rx="2" fill="#06b6d4"/>
  <text x="448" y="182" font-family="system-ui,-apple-system,sans-serif" font-size="12" font-weight="600" fill="#f8fafc">How-To</text>
  <text x="448" y="200" font-family="system-ui,-apple-system,sans-serif" font-size="10" fill="#64748b">Likelihood</text>
  <rect x="448" y="206" width="240" height="8" rx="4" fill="#1e293b"/>
  <rect x="448" y="206" width="120" height="8" rx="4" fill="#06b6d4" opacity="0.9"/>
  <text x="696" y="213" font-family="system-ui,-apple-system,sans-serif" font-size="10" font-weight="600" fill="#67e8f9">50%</text>
  <text x="448" y="228" font-family="system-ui,-apple-system,sans-serif" font-size="10" fill="#6ee7b7">✓  Step-by-step content detected</text>
  <text x="448" y="244" font-family="system-ui,-apple-system,sans-serif" font-size="10" fill="#ef4444">✗  HowTo schema missing</text>
  <text x="448" y="260" font-family="system-ui,-apple-system,sans-serif" font-size="10" fill="#f59e0b">△  Add HowTo schema to unlock</text>

  <!-- Featured Snippet -->
  <rect x="804" y="158" width="356" height="116" rx="8" fill="#0f1729" stroke="#8b5cf6" stroke-width="1.5"/>
  <rect x="804" y="158" width="356" height="4" rx="2" fill="#8b5cf6"/>
  <text x="822" y="182" font-family="system-ui,-apple-system,sans-serif" font-size="12" font-weight="600" fill="#f8fafc">Featured Snippet</text>
  <text x="822" y="200" font-family="system-ui,-apple-system,sans-serif" font-size="10" fill="#64748b">Likelihood</text>
  <rect x="822" y="206" width="240" height="8" rx="4" fill="#1e293b"/>
  <rect x="822" y="206" width="48" height="8" rx="4" fill="#8b5cf6" opacity="0.9"/>
  <text x="1070" y="213" font-family="system-ui,-apple-system,sans-serif" font-size="10" font-weight="600" fill="#c4b5fd">20%</text>
  <text x="822" y="228" font-family="system-ui,-apple-system,sans-serif" font-size="10" fill="#6ee7b7">✓  Sufficient word count (1,400+)</text>
  <text x="822" y="244" font-family="system-ui,-apple-system,sans-serif" font-size="10" fill="#6ee7b7">✓  Heading structure present</text>
  <text x="822" y="260" font-family="system-ui,-apple-system,sans-serif" font-size="10" fill="#ef4444">✗  Add direct answer near top</text>

  <!-- Row 2 -->

  <!-- Product -->
  <rect x="56" y="286" width="342" height="116" rx="8" fill="#0f1729" stroke="#1e293b" stroke-width="1"/>
  <rect x="56" y="286" width="342" height="4" rx="2" fill="#475569"/>
  <text x="74" y="310" font-family="system-ui,-apple-system,sans-serif" font-size="12" font-weight="600" fill="#94a3b8">Product Rich Result</text>
  <text x="74" y="328" font-family="system-ui,-apple-system,sans-serif" font-size="10" fill="#64748b">Likelihood</text>
  <rect x="74" y="334" width="240" height="8" rx="4" fill="#1e293b"/>
  <rect x="74" y="334" width="24" height="8" rx="4" fill="#475569" opacity="0.9"/>
  <text x="322" y="341" font-family="system-ui,-apple-system,sans-serif" font-size="10" font-weight="600" fill="#64748b">10%</text>
  <text x="74" y="360" font-family="system-ui,-apple-system,sans-serif" font-size="10" fill="#ef4444">✗  Product schema missing</text>
  <text x="74" y="376" font-family="system-ui,-apple-system,sans-serif" font-size="10" fill="#ef4444">✗  Price/availability data missing</text>
  <text x="74" y="392" font-family="system-ui,-apple-system,sans-serif" font-size="10" fill="#475569">— Not applicable for this content type</text>

  <!-- Review -->
  <rect x="430" y="286" width="342" height="116" rx="8" fill="#0f1729" stroke="#f59e0b" stroke-width="1.5"/>
  <rect x="430" y="286" width="342" height="4" rx="2" fill="#f59e0b"/>
  <text x="448" y="310" font-family="system-ui,-apple-system,sans-serif" font-size="12" font-weight="600" fill="#f8fafc">Review Stars</text>
  <text x="448" y="328" font-family="system-ui,-apple-system,sans-serif" font-size="10" fill="#64748b">Likelihood</text>
  <rect x="448" y="334" width="240" height="8" rx="4" fill="#1e293b"/>
  <rect x="448" y="334" width="144" height="8" rx="4" fill="#f59e0b" opacity="0.9"/>
  <text x="696" y="341" font-family="system-ui,-apple-system,sans-serif" font-size="10" font-weight="600" fill="#fcd34d">60%</text>
  <text x="448" y="360" font-family="system-ui,-apple-system,sans-serif" font-size="10" fill="#6ee7b7">✓  AggregateRating schema found</text>
  <text x="448" y="376" font-family="system-ui,-apple-system,sans-serif" font-size="10" fill="#ef4444">✗  Minimum 5 reviews required</text>
  <text x="448" y="392" font-family="system-ui,-apple-system,sans-serif" font-size="10" fill="#f59e0b">△  Collect 3 more reviews</text>

  <!-- Video -->
  <rect x="804" y="286" width="356" height="116" rx="8" fill="#0f1729" stroke="#ec4899" stroke-width="1.5"/>
  <rect x="804" y="286" width="356" height="4" rx="2" fill="#ec4899"/>
  <text x="822" y="310" font-family="system-ui,-apple-system,sans-serif" font-size="12" font-weight="600" fill="#f8fafc">Video Rich Result</text>
  <text x="822" y="328" font-family="system-ui,-apple-system,sans-serif" font-size="10" fill="#64748b">Likelihood</text>
  <rect x="822" y="334" width="240" height="8" rx="4" fill="#1e293b"/>
  <rect x="822" y="334" width="144" height="8" rx="4" fill="#ec4899" opacity="0.9"/>
  <text x="1070" y="341" font-family="system-ui,-apple-system,sans-serif" font-size="10" font-weight="600" fill="#f9a8d4">60%</text>
  <text x="822" y="360" font-family="system-ui,-apple-system,sans-serif" font-size="10" fill="#6ee7b7">✓  VideoObject schema found</text>
  <text x="822" y="376" font-family="system-ui,-apple-system,sans-serif" font-size="10" fill="#ef4444">✗  thumbnailUrl missing in schema</text>
  <text x="822" y="392" font-family="system-ui,-apple-system,sans-serif" font-size="10" fill="#f59e0b">△  Add thumbnail to VideoObject</text>

  <rect x="0" y="476" width="1200" height="4" fill="url(#accent)"/>
</svg>
