<svg width="1200" height="480" viewBox="0 0 1200 480" xmlns="http://www.w3.org/2000/svg">
  <defs>
    <linearGradient id="bg" x1="0" y1="0" x2="1" y2="1" gradientUnits="objectBoundingBox">
      <stop offset="0%" stop-color="#070d1f"/><stop offset="100%" stop-color="#0d1a2e"/>
    </linearGradient>
    <linearGradient id="accent" x1="0" y1="0" x2="1" y2="0" gradientUnits="objectBoundingBox">
      <stop offset="0%" stop-color="#10b981"/><stop offset="100%" stop-color="#06b6d4"/>
    </linearGradient>
    <pattern id="dots" width="30" height="30" patternUnits="userSpaceOnUse">
      <circle cx="1.5" cy="1.5" r="1.5" fill="#1e293b" opacity="0.45"/>
    </pattern>
  </defs>
  <rect width="1200" height="480" fill="url(#bg)"/>
  <rect width="1200" height="480" fill="url(#dots)"/>
  <rect x="0" y="0" width="1200" height="4" fill="url(#accent)"/>

  <text x="600" y="36" font-family="system-ui,-apple-system,sans-serif" font-size="16" font-weight="600" fill="#f8fafc" text-anchor="middle">SEO Analytics Dashboard — What You Can Build</text>
  <text x="600" y="54" font-family="system-ui,-apple-system,sans-serif" font-size="12" fill="#475569" text-anchor="middle">buildDashboardData() → complete overview of clicks, positions, audit scores and top pages</text>

  <!-- Browser frame -->
  <rect x="40" y="68" width="1120" height="384" rx="10" fill="#0d1525" stroke="#1e293b"/>
  <rect x="40" y="68" width="1120" height="32" rx="10" fill="#111827"/>
  <rect x="40" y="88" width="1120" height="12" fill="#111827"/>
  <circle cx="62" cy="84" r="5" fill="#ef4444" opacity="0.6"/>
  <circle cx="80" cy="84" r="5" fill="#f59e0b" opacity="0.6"/>
  <circle cx="98" cy="84" r="5" fill="#10b981" opacity="0.6"/>
  <text x="390" y="88" font-family="system-ui,-apple-system,sans-serif" font-size="9" fill="#475569" text-anchor="middle">yourapp.com/dashboard/seo</text>
  <!-- nav tabs -->
  <rect x="700" y="76" width="70" height="20" rx="4" fill="#10b981" fill-opacity="0.2" stroke="#10b981" stroke-opacity="0.5"/>
  <text x="735" y="90" font-family="system-ui,-apple-system,sans-serif" font-size="9" fill="#6ee7b7" text-anchor="middle">Overview</text>
  <text x="800" y="90" font-family="system-ui,-apple-system,sans-serif" font-size="9" fill="#475569">Rankings</text>
  <text x="860" y="90" font-family="system-ui,-apple-system,sans-serif" font-size="9" fill="#475569">Trends</text>
  <text x="920" y="90" font-family="system-ui,-apple-system,sans-serif" font-size="9" fill="#475569">Pages</text>

  <!-- Page title row -->
  <text x="60" y="122" font-family="system-ui,-apple-system,sans-serif" font-size="14" font-weight="700" fill="#f8fafc">SEO Performance Overview</text>
  <text x="60" y="138" font-family="system-ui,-apple-system,sans-serif" font-size="10" fill="#475569">Last 28 days  ·  compared to previous period  ·  Google Search Console + Audit data</text>

  <!-- KPI row -->
  <rect x="60" y="148" width="240" height="66" rx="8" fill="#111827" stroke="#1e293b"/>
  <text x="76" y="168" font-family="system-ui,-apple-system,sans-serif" font-size="10" fill="#64748b">Total Clicks</text>
  <text x="76" y="192" font-family="system-ui,-apple-system,sans-serif" font-size="24" font-weight="700" fill="#f8fafc">24,812</text>
  <text x="76" y="208" font-family="system-ui,-apple-system,sans-serif" font-size="10" fill="#10b981">↑ 18.4%  vs prev period</text>

  <rect x="312" y="148" width="240" height="66" rx="8" fill="#111827" stroke="#1e293b"/>
  <text x="328" y="168" font-family="system-ui,-apple-system,sans-serif" font-size="10" fill="#64748b">Total Impressions</text>
  <text x="328" y="192" font-family="system-ui,-apple-system,sans-serif" font-size="24" font-weight="700" fill="#f8fafc">481,290</text>
  <text x="328" y="208" font-family="system-ui,-apple-system,sans-serif" font-size="10" fill="#10b981">↑ 12.1%  vs prev period</text>

  <rect x="564" y="148" width="200" height="66" rx="8" fill="#111827" stroke="#1e293b"/>
  <text x="580" y="168" font-family="system-ui,-apple-system,sans-serif" font-size="10" fill="#64748b">Avg. CTR</text>
  <text x="580" y="192" font-family="system-ui,-apple-system,sans-serif" font-size="24" font-weight="700" fill="#f8fafc">5.16%</text>
  <text x="580" y="208" font-family="system-ui,-apple-system,sans-serif" font-size="10" fill="#10b981">↑ 0.82%  vs prev period</text>

  <rect x="776" y="148" width="200" height="66" rx="8" fill="#111827" stroke="#1e293b"/>
  <text x="792" y="168" font-family="system-ui,-apple-system,sans-serif" font-size="10" fill="#64748b">Avg. Position</text>
  <text x="792" y="192" font-family="system-ui,-apple-system,sans-serif" font-size="24" font-weight="700" fill="#f8fafc">6.4</text>
  <text x="792" y="208" font-family="system-ui,-apple-system,sans-serif" font-size="10" fill="#10b981">↑ 2.1 pts  vs prev period</text>

  <rect x="988" y="148" width="172" height="66" rx="8" fill="#111827" stroke="#f59e0b" stroke-opacity="0.4"/>
  <text x="1004" y="168" font-family="system-ui,-apple-system,sans-serif" font-size="10" fill="#64748b">Avg. Audit Score</text>
  <text x="1004" y="192" font-family="system-ui,-apple-system,sans-serif" font-size="24" font-weight="700" fill="#f59e0b">78</text>
  <text x="1004" y="208" font-family="system-ui,-apple-system,sans-serif" font-size="10" fill="#10b981">↑ +6 pts  this week</text>

  <!-- Main chart: clicks over time -->
  <rect x="60" y="228" width="700" height="180" rx="8" fill="#111827" stroke="#1e293b"/>
  <text x="76" y="248" font-family="system-ui,-apple-system,sans-serif" font-size="11" font-weight="600" fill="#f8fafc">Clicks &amp; Impressions — 28 days</text>
  <!-- chart grid lines -->
  <line x1="76" y1="260" x2="744" y2="260" stroke="#1e293b" stroke-width="1"/>
  <line x1="76" y1="280" x2="744" y2="280" stroke="#1e293b" stroke-width="1"/>
  <line x1="76" y1="300" x2="744" y2="300" stroke="#1e293b" stroke-width="1"/>
  <line x1="76" y1="320" x2="744" y2="320" stroke="#1e293b" stroke-width="1"/>
  <line x1="76" y1="340" x2="744" y2="340" stroke="#1e293b" stroke-width="1"/>
  <line x1="76" y1="360" x2="744" y2="360" stroke="#1e293b" stroke-width="1"/>
  <line x1="76" y1="380" x2="744" y2="380" stroke="#1e293b" stroke-width="1"/>
  <line x1="76" y1="395" x2="744" y2="395" stroke="#1e293b" stroke-width="1"/>
  <!-- clicks bars (green) -->
  <rect x="86"  y="370" width="18" height="25" rx="1" fill="#10b981" opacity="0.7"/>
  <rect x="110" y="365" width="18" height="30" rx="1" fill="#10b981" opacity="0.7"/>
  <rect x="134" y="360" width="18" height="35" rx="1" fill="#10b981" opacity="0.72"/>
  <rect x="158" y="355" width="18" height="40" rx="1" fill="#10b981" opacity="0.74"/>
  <rect x="182" y="360" width="18" height="35" rx="1" fill="#10b981" opacity="0.74"/>
  <rect x="206" y="350" width="18" height="45" rx="1" fill="#10b981" opacity="0.76"/>
  <rect x="230" y="348" width="18" height="47" rx="1" fill="#10b981" opacity="0.78"/>
  <rect x="254" y="345" width="18" height="50" rx="1" fill="#10b981" opacity="0.8"/>
  <rect x="278" y="340" width="18" height="55" rx="1" fill="#10b981" opacity="0.82"/>
  <rect x="302" y="338" width="18" height="57" rx="1" fill="#10b981" opacity="0.84"/>
  <rect x="326" y="333" width="18" height="62" rx="1" fill="#10b981" opacity="0.86"/>
  <rect x="350" y="330" width="18" height="65" rx="1" fill="#10b981" opacity="0.88"/>
  <rect x="374" y="328" width="18" height="67" rx="1" fill="#10b981" opacity="0.9"/>
  <rect x="398" y="325" width="18" height="70" rx="1" fill="#10b981" opacity="0.92"/>
  <rect x="422" y="322" width="18" height="73" rx="1" fill="#10b981" opacity="0.94"/>
  <rect x="446" y="318" width="18" height="77" rx="1" fill="#10b981" opacity="0.95"/>
  <rect x="470" y="315" width="18" height="80" rx="1" fill="#10b981" opacity="0.97"/>
  <rect x="494" y="310" width="18" height="85" rx="1" fill="#10b981" opacity="0.99"/>
  <rect x="518" y="308" width="18" height="87" rx="1" fill="#10b981"/>
  <rect x="542" y="305" width="18" height="90" rx="1" fill="#10b981"/>
  <rect x="566" y="300" width="18" height="95" rx="1" fill="#06b6d4"/>
  <rect x="590" y="297" width="18" height="98" rx="1" fill="#06b6d4"/>
  <rect x="614" y="293" width="18" height="102" rx="1" fill="#06b6d4"/>
  <rect x="638" y="291" width="18" height="104" rx="1" fill="#06b6d4"/>
  <rect x="662" y="288" width="18" height="107" rx="1" fill="#06b6d4"/>
  <rect x="686" y="286" width="18" height="109" rx="1" fill="#06b6d4"/>
  <rect x="710" y="283" width="18" height="112" rx="1" fill="#06b6d4"/>
  <!-- trend line overlay -->
  <polyline points="95,381 119,376 143,367 167,363 191,367 215,357 239,355 263,351 287,347 311,344 335,340 359,337 383,334 407,331 431,329 455,326 479,323 503,318 527,316 551,313 575,308 599,305 623,302 647,300 671,297 695,294 719,291" stroke="#f8fafc" stroke-width="1.5" fill="none" opacity="0.4" stroke-dasharray="4,2"/>
  <!-- legend -->
  <rect x="620" y="242" width="10" height="10" rx="2" fill="#10b981"/>
  <text x="635" y="251" font-family="system-ui,-apple-system,sans-serif" font-size="9" fill="#64748b">Clicks</text>
  <rect x="680" y="242" width="10" height="10" rx="2" fill="#06b6d4"/>
  <text x="695" y="251" font-family="system-ui,-apple-system,sans-serif" font-size="9" fill="#64748b">Trend</text>

  <!-- Right: Top pages table -->
  <rect x="772" y="228" width="388" height="180" rx="8" fill="#111827" stroke="#1e293b"/>
  <text x="788" y="248" font-family="system-ui,-apple-system,sans-serif" font-size="11" font-weight="600" fill="#f8fafc">Top Pages by Clicks</text>
  <text x="1100" y="248" font-family="system-ui,-apple-system,sans-serif" font-size="9" fill="#475569" text-anchor="end">Clicks · Pos</text>
  <line x1="788" y1="256" x2="1144" y2="256" stroke="#1e293b" stroke-width="1"/>

  <text x="788" y="272" font-family="system-ui,-apple-system,sans-serif" font-size="10" fill="#94a3b8">/blog/nextjs-seo-guide</text>
  <text x="1100" y="272" font-family="system-ui,-apple-system,sans-serif" font-size="10" fill="#f8fafc" text-anchor="end">4,201</text>
  <rect x="1110" y="263" width="30" height="14" rx="3" fill="#10b981" fill-opacity="0.2"/>
  <text x="1125" y="273" font-family="system-ui,-apple-system,sans-serif" font-size="9" fill="#6ee7b7" text-anchor="middle">#3.2</text>
  <line x1="788" y1="279" x2="1144" y2="279" stroke="#1e293b" stroke-width="0.5"/>

  <text x="788" y="295" font-family="system-ui,-apple-system,sans-serif" font-size="10" fill="#94a3b8">/guides/typescript-seo</text>
  <text x="1100" y="295" font-family="system-ui,-apple-system,sans-serif" font-size="10" fill="#f8fafc" text-anchor="end">3,847</text>
  <rect x="1110" y="286" width="30" height="14" rx="3" fill="#10b981" fill-opacity="0.2"/>
  <text x="1125" y="296" font-family="system-ui,-apple-system,sans-serif" font-size="9" fill="#6ee7b7" text-anchor="middle">#4.1</text>
  <line x1="788" y1="302" x2="1144" y2="302" stroke="#1e293b" stroke-width="0.5"/>

  <text x="788" y="318" font-family="system-ui,-apple-system,sans-serif" font-size="10" fill="#94a3b8">/docs/react-seo-components</text>
  <text x="1100" y="318" font-family="system-ui,-apple-system,sans-serif" font-size="10" fill="#f8fafc" text-anchor="end">2,934</text>
  <rect x="1110" y="309" width="30" height="14" rx="3" fill="#f59e0b" fill-opacity="0.2"/>
  <text x="1125" y="319" font-family="system-ui,-apple-system,sans-serif" font-size="9" fill="#fcd34d" text-anchor="middle">#7.8</text>
  <line x1="788" y1="325" x2="1144" y2="325" stroke="#1e293b" stroke-width="0.5"/>

  <text x="788" y="341" font-family="system-ui,-apple-system,sans-serif" font-size="10" fill="#94a3b8">/blog/sitemap-nextjs</text>
  <text x="1100" y="341" font-family="system-ui,-apple-system,sans-serif" font-size="10" fill="#f8fafc" text-anchor="end">2,108</text>
  <rect x="1110" y="332" width="30" height="14" rx="3" fill="#f59e0b" fill-opacity="0.2"/>
  <text x="1125" y="342" font-family="system-ui,-apple-system,sans-serif" font-size="9" fill="#fcd34d" text-anchor="middle">#9.4</text>
  <line x1="788" y1="348" x2="1144" y2="348" stroke="#1e293b" stroke-width="0.5"/>

  <text x="788" y="364" font-family="system-ui,-apple-system,sans-serif" font-size="10" fill="#94a3b8">/blog/open-graph-guide</text>
  <text x="1100" y="364" font-family="system-ui,-apple-system,sans-serif" font-size="10" fill="#f8fafc" text-anchor="end">1,923</text>
  <rect x="1110" y="355" width="30" height="14" rx="3" fill="#8b5cf6" fill-opacity="0.2"/>
  <text x="1125" y="365" font-family="system-ui,-apple-system,sans-serif" font-size="9" fill="#c4b5fd" text-anchor="middle">#12.1</text>
  <line x1="788" y1="371" x2="1144" y2="371" stroke="#1e293b" stroke-width="0.5"/>

  <text x="788" y="387" font-family="system-ui,-apple-system,sans-serif" font-size="10" fill="#64748b">+ 5 more pages  →  View all</text>

  <rect x="0" y="476" width="1200" height="4" fill="url(#accent)"/>
</svg>
