<svg xmlns="http://www.w3.org/2000/svg" width="900" height="500" viewBox="0 0 900 500">
  <defs>
    <style>
      text { font-family: 'Inter', 'Segoe UI', system-ui, sans-serif; }
      .mono { font-family: 'JetBrains Mono', 'Fira Code', 'Cascadia Code', monospace; }
    </style>
    <linearGradient id="grad1" x1="0" y1="0" x2="0" y2="1">
      <stop offset="0%" stop-color="#22c55e" stop-opacity="0.2"/>
      <stop offset="100%" stop-color="#22c55e" stop-opacity="0.0"/>
    </linearGradient>
    <clipPath id="chartClip2">
      <rect x="36" y="196" width="828" height="130"/>
    </clipPath>
  </defs>

  <!-- Background -->
  <rect width="900" height="500" fill="#0d1117"/>

  <!-- Main panel -->
  <rect x="20" y="20" width="860" height="460" rx="12" fill="#161b22" stroke="#21262d" stroke-width="1"/>

  <!-- Header -->
  <text x="40" y="58" fill="#ffffff" font-size="18" font-weight="700">SEO Performance Report</text>
  <!-- Green underline -->
  <rect x="40" y="62" width="222" height="3" rx="1.5" fill="#22c55e"/>

  <!-- ===== KPI CARDS ROW ===== -->
  <!-- Card 1: Total Clicks -->
  <rect x="40" y="82" width="258" height="88" rx="8" fill="#1a2332" stroke="#21262d" stroke-width="1"/>
  <text x="60" y="110" fill="#8b949e" font-size="11">Total Clicks</text>
  <text x="60" y="144" fill="#22c55e" font-size="26" font-weight="700">24,831</text>
  <polygon points="271,105 281,105 276,97" fill="#22c55e"/>
  <text x="286" y="113" fill="#22c55e" font-size="10">+12.4%</text>

  <!-- Card 2: Avg Position -->
  <rect x="314" y="82" width="258" height="88" rx="8" fill="#1a2332" stroke="#21262d" stroke-width="1"/>
  <text x="334" y="110" fill="#8b949e" font-size="11">Avg Position</text>
  <text x="334" y="144" fill="#22c55e" font-size="26" font-weight="700">14.2</text>
  <polygon points="545,109 555,109 550,117" fill="#22c55e"/>
  <text x="560" y="117" fill="#22c55e" font-size="10">↓ better</text>

  <!-- Card 3: Top Opportunity -->
  <rect x="588" y="82" width="272" height="88" rx="8" fill="#1a2332" stroke="#21262d" stroke-width="1"/>
  <text x="608" y="110" fill="#8b949e" font-size="11">Top Opportunity</text>
  <text x="608" y="138" fill="#f59e0b" font-size="20" font-weight="700">+1,200 clicks</text>
  <text x="608" y="160" fill="#8b949e" font-size="11">if /blog/seo-guide is fixed</text>

  <!-- ===== LINE CHART: Position Trends ===== -->
  <text x="40" y="194" fill="#ffffff" font-size="13" font-weight="600">Position Trends — Top 5 Pages</text>
  <text x="860" y="194" fill="#8b949e" font-size="10" text-anchor="end">4 weeks</text>

  <!-- Chart area -->
  <rect x="36" y="198" width="828" height="126" rx="6" fill="#0f1923"/>

  <!-- Grid lines -->
  <line x1="36" y1="220" x2="864" y2="220" stroke="#1e2430" stroke-width="1"/>
  <line x1="36" y1="244" x2="864" y2="244" stroke="#1e2430" stroke-width="1"/>
  <line x1="36" y1="268" x2="864" y2="268" stroke="#1e2430" stroke-width="1"/>
  <line x1="36" y1="292" x2="864" y2="292" stroke="#1e2430" stroke-width="1"/>
  <line x1="36" y1="316" x2="864" y2="316" stroke="#1e2430" stroke-width="1"/>

  <!-- Week markers -->
  <text x="100" y="334" fill="#8b949e" font-size="10" text-anchor="middle">Week 1</text>
  <text x="340" y="334" fill="#8b949e" font-size="10" text-anchor="middle">Week 2</text>
  <text x="580" y="334" fill="#8b949e" font-size="10" text-anchor="middle">Week 3</text>
  <text x="820" y="334" fill="#8b949e" font-size="10" text-anchor="middle">Week 4</text>

  <!-- Line 1: green #22c55e — /blog/seo-guide -->
  <polyline points="100,305 340,282 580,255 820,236" fill="none" stroke="#22c55e" stroke-width="2" stroke-linejoin="round" stroke-linecap="round" clip-path="url(#chartClip2)"/>
  <circle cx="100" cy="305" r="3.5" fill="#22c55e"/>
  <circle cx="340" cy="282" r="3.5" fill="#22c55e"/>
  <circle cx="580" cy="255" r="3.5" fill="#22c55e"/>
  <circle cx="820" cy="236" r="3.5" fill="#22c55e"/>

  <!-- Line 2: blue #3b82f6 — /docs/getting-started -->
  <polyline points="100,292 340,270 580,248 820,228" fill="none" stroke="#3b82f6" stroke-width="2" stroke-linejoin="round" stroke-linecap="round" clip-path="url(#chartClip2)"/>
  <circle cx="100" cy="292" r="3.5" fill="#3b82f6"/>
  <circle cx="340" cy="270" r="3.5" fill="#3b82f6"/>
  <circle cx="580" cy="248" r="3.5" fill="#3b82f6"/>
  <circle cx="820" cy="228" r="3.5" fill="#3b82f6"/>

  <!-- Line 3: purple #a855f7 — /pricing -->
  <polyline points="100,316 340,304 580,290 820,272" fill="none" stroke="#a855f7" stroke-width="2" stroke-linejoin="round" stroke-linecap="round" clip-path="url(#chartClip2)"/>
  <circle cx="100" cy="316" r="3.5" fill="#a855f7"/>
  <circle cx="340" cy="304" r="3.5" fill="#a855f7"/>
  <circle cx="580" cy="290" r="3.5" fill="#a855f7"/>
  <circle cx="820" cy="272" r="3.5" fill="#a855f7"/>

  <!-- Line 4: amber #f59e0b — /features -->
  <polyline points="100,310 340,294 580,278 820,258" fill="none" stroke="#f59e0b" stroke-width="2" stroke-linejoin="round" stroke-linecap="round" clip-path="url(#chartClip2)"/>
  <circle cx="100" cy="310" r="3.5" fill="#f59e0b"/>
  <circle cx="340" cy="294" r="3.5" fill="#f59e0b"/>
  <circle cx="580" cy="278" r="3.5" fill="#f59e0b"/>
  <circle cx="820" cy="258" r="3.5" fill="#f59e0b"/>

  <!-- Line 5: cyan #06b6d4 — /blog/typescript-tips -->
  <polyline points="100,320 340,309 580,296 820,282" fill="none" stroke="#06b6d4" stroke-width="2" stroke-linejoin="round" stroke-linecap="round" clip-path="url(#chartClip2)"/>
  <circle cx="100" cy="320" r="3.5" fill="#06b6d4"/>
  <circle cx="340" cy="309" r="3.5" fill="#06b6d4"/>
  <circle cx="580" cy="296" r="3.5" fill="#06b6d4"/>
  <circle cx="820" cy="282" r="3.5" fill="#06b6d4"/>

  <!-- Legend -->
  <circle cx="46" cy="344" r="4" fill="#22c55e"/>
  <text x="56" y="348" fill="#8b949e" font-size="9">/blog/seo-guide</text>
  <circle cx="160" cy="344" r="4" fill="#3b82f6"/>
  <text x="170" y="348" fill="#8b949e" font-size="9">/docs/getting-started</text>
  <circle cx="296" cy="344" r="4" fill="#a855f7"/>
  <text x="306" y="348" fill="#8b949e" font-size="9">/pricing</text>
  <circle cx="374" cy="344" r="4" fill="#f59e0b"/>
  <text x="384" y="348" fill="#8b949e" font-size="9">/features</text>
  <circle cx="446" cy="344" r="4" fill="#06b6d4"/>
  <text x="456" y="348" fill="#8b949e" font-size="9">/blog/typescript-tips</text>

  <!-- ===== TOP OPPORTUNITIES TABLE ===== -->
  <text x="40" y="374" fill="#ffffff" font-size="13" font-weight="600">Top Opportunities</text>

  <!-- Table header -->
  <rect x="36" y="380" width="828" height="26" rx="4" fill="#1a2332"/>
  <text x="52" y="397" fill="#8b949e" font-size="10" font-weight="600">Page URL</text>
  <text x="380" y="397" fill="#8b949e" font-size="10" font-weight="600" text-anchor="middle">Audit Score</text>
  <text x="560" y="397" fill="#8b949e" font-size="10" font-weight="600" text-anchor="middle">Current Clicks</text>
  <text x="720" y="397" fill="#8b949e" font-size="10" font-weight="600" text-anchor="middle">Projected Gain</text>
  <text x="840" y="397" fill="#8b949e" font-size="10" font-weight="600" text-anchor="middle">Action</text>

  <!-- Row 1 -->
  <rect x="36" y="406" width="828" height="22" fill="#0d1117"/>
  <text x="52" y="421" fill="#58a6ff" font-size="10" font-family="'JetBrains Mono','Fira Code',monospace">/blog/seo-guide</text>
  <rect x="338" y="409" width="84" height="14" rx="3" fill="#dc2626"/>
  <text x="380" y="420" fill="#ffffff" font-size="9" font-weight="700" text-anchor="middle">40/100</text>
  <text x="560" y="421" fill="#ffffff" font-size="10" text-anchor="middle">1,847</text>
  <text x="720" y="421" fill="#22c55e" font-size="10" font-weight="700" text-anchor="middle">+1,200/mo</text>
  <text x="840" y="421" fill="#22c55e" font-size="10" font-weight="600" text-anchor="middle">Fix this →</text>

  <!-- Row 2 -->
  <rect x="36" y="428" width="828" height="22" fill="#161b22"/>
  <text x="52" y="443" fill="#58a6ff" font-size="10" font-family="'JetBrains Mono','Fira Code',monospace">/pricing</text>
  <rect x="338" y="431" width="84" height="14" rx="3" fill="#dc2626"/>
  <text x="380" y="442" fill="#ffffff" font-size="9" font-weight="700" text-anchor="middle">31/100</text>
  <text x="560" y="443" fill="#ffffff" font-size="10" text-anchor="middle">1,203</text>
  <text x="720" y="443" fill="#22c55e" font-size="10" font-weight="700" text-anchor="middle">+890/mo</text>
  <text x="840" y="443" fill="#22c55e" font-size="10" font-weight="600" text-anchor="middle">Fix this →</text>

  <!-- Row 3 -->
  <rect x="36" y="450" width="828" height="22" fill="#0d1117"/>
  <text x="52" y="465" fill="#58a6ff" font-size="10" font-family="'JetBrains Mono','Fira Code',monospace">/blog/typescript-tips</text>
  <rect x="338" y="453" width="84" height="14" rx="3" fill="#d97706"/>
  <text x="380" y="464" fill="#ffffff" font-size="9" font-weight="700" text-anchor="middle">65/100</text>
  <text x="560" y="465" fill="#ffffff" font-size="10" text-anchor="middle">892</text>
  <text x="720" y="465" fill="#22c55e" font-size="10" font-weight="700" text-anchor="middle">+340/mo</text>
  <text x="840" y="465" fill="#22c55e" font-size="10" font-weight="600" text-anchor="middle">Fix this →</text>

  <!-- Row 4 -->
  <rect x="36" y="472" width="828" height="22" fill="#161b22"/>
  <text x="52" y="487" fill="#58a6ff" font-size="10" font-family="'JetBrains Mono','Fira Code',monospace">/docs/api-reference</text>
  <rect x="338" y="475" width="84" height="14" rx="3" fill="#d97706"/>
  <text x="380" y="486" fill="#ffffff" font-size="9" font-weight="700" text-anchor="middle">58/100</text>
  <text x="560" y="487" fill="#ffffff" font-size="10" text-anchor="middle">654</text>
  <text x="720" y="487" fill="#22c55e" font-size="10" font-weight="700" text-anchor="middle">+210/mo</text>
  <text x="840" y="487" fill="#22c55e" font-size="10" font-weight="600" text-anchor="middle">Fix this →</text>
</svg>
