<svg xmlns="http://www.w3.org/2000/svg" width="1200" height="630" viewBox="0 0 1200 630">
  <defs>
    <style>
      text { font-family: 'Inter', 'Segoe UI', system-ui, sans-serif; }
      .mono { font-family: 'JetBrains Mono', 'Fira Code', 'Cascadia Code', monospace; }
      .score-badge { rx: 4; ry: 4; }
    </style>
    <linearGradient id="chartFill" x1="0" y1="0" x2="0" y2="1">
      <stop offset="0%" stop-color="#22c55e" stop-opacity="0.25"/>
      <stop offset="100%" stop-color="#22c55e" stop-opacity="0.02"/>
    </linearGradient>
    <clipPath id="chartClip">
      <rect x="60" y="220" width="1080" height="180"/>
    </clipPath>
  </defs>

  <!-- Background -->
  <rect width="1200" height="630" fill="#0d1117"/>

  <!-- Main dashboard panel -->
  <rect x="24" y="24" width="1152" height="582" rx="12" fill="#161b22" stroke="#21262d" stroke-width="1"/>

  <!-- Header row -->
  <text x="44" y="64" fill="#22c55e" font-size="18" font-weight="600">@power-seo/analytics</text>
  <text x="1156" y="64" fill="#ffffff" font-size="18" text-anchor="end">GSC data + Audit scores = actionable insights.</text>

  <!-- Divider -->
  <line x1="44" y1="78" x2="1156" y2="78" stroke="#21262d" stroke-width="1"/>

  <!-- KPI Cards Row -->
  <!-- Card 1: Total Clicks -->
  <rect x="44" y="90" width="264" height="96" rx="8" fill="#1a2332" stroke="#21262d" stroke-width="1"/>
  <text x="64" y="122" fill="#8b949e" font-size="12">Total Clicks</text>
  <text x="64" y="155" fill="#ffffff" font-size="24" font-weight="700">24,831</text>
  <!-- Green up arrow -->
  <polygon points="296,112 306,112 301,104" fill="#22c55e"/>
  <text x="310" y="120" fill="#22c55e" font-size="11">+12.4%</text>

  <!-- Card 2: Impressions -->
  <rect x="320" y="90" width="264" height="96" rx="8" fill="#1a2332" stroke="#21262d" stroke-width="1"/>
  <text x="340" y="122" fill="#8b949e" font-size="12">Impressions</text>
  <text x="340" y="155" fill="#ffffff" font-size="24" font-weight="700">412,900</text>
  <polygon points="572,112 582,112 577,104" fill="#22c55e"/>
  <text x="586" y="120" fill="#22c55e" font-size="11">+8.7%</text>

  <!-- Card 3: Avg Position -->
  <rect x="596" y="90" width="264" height="96" rx="8" fill="#1a2332" stroke="#21262d" stroke-width="1"/>
  <text x="616" y="122" fill="#8b949e" font-size="12">Avg Position</text>
  <text x="616" y="155" fill="#ffffff" font-size="24" font-weight="700">14.2</text>
  <!-- Down arrow (good) -->
  <polygon points="848,108 858,108 853,116" fill="#22c55e"/>
  <text x="862" y="120" fill="#22c55e" font-size="11">↓ better</text>

  <!-- Card 4: Pages Indexed -->
  <rect x="872" y="90" width="264" height="96" rx="8" fill="#1a2332" stroke="#21262d" stroke-width="1"/>
  <text x="892" y="122" fill="#8b949e" font-size="12">Pages Indexed</text>
  <text x="892" y="155" fill="#ffffff" font-size="24" font-weight="700">1,247</text>
  <text x="1094" y="120" fill="#8b949e" font-size="14">→</text>

  <!-- Chart area label -->
  <text x="60" y="212" fill="#8b949e" font-size="12">30-Day Clicks Trend</text>
  <text x="1140" y="212" fill="#8b949e" font-size="11" text-anchor="end">Last 30 days</text>

  <!-- Chart background -->
  <rect x="44" y="218" width="1112" height="190" rx="6" fill="#0f1923"/>

  <!-- Y-axis labels -->
  <text x="38" y="228" fill="#8b949e" font-size="10" text-anchor="end">1K</text>
  <text x="38" y="268" fill="#8b949e" font-size="10" text-anchor="end">800</text>
  <text x="38" y="308" fill="#8b949e" font-size="10" text-anchor="end">600</text>
  <text x="38" y="348" fill="#8b949e" font-size="10" text-anchor="end">400</text>
  <text x="38" y="388" fill="#8b949e" font-size="10" text-anchor="end">200</text>

  <!-- Grid lines -->
  <line x1="60" y1="230" x2="1148" y2="230" stroke="#1e2430" stroke-width="1"/>
  <line x1="60" y1="270" x2="1148" y2="270" stroke="#1e2430" stroke-width="1"/>
  <line x1="60" y1="310" x2="1148" y2="310" stroke="#1e2430" stroke-width="1"/>
  <line x1="60" y1="350" x2="1148" y2="350" stroke="#1e2430" stroke-width="1"/>
  <line x1="60" y1="390" x2="1148" y2="390" stroke="#1e2430" stroke-width="1"/>

  <!-- Chart line and area fill (30-day rising trend with volatility) -->
  <polygon
    points="60,395 96,382 132,378 168,370 204,365 240,358 276,361 312,350 348,344 384,340 420,332 456,338 492,326 528,318 564,312 600,305 636,310 672,298 708,290 744,282 780,276 816,280 852,268 888,261 924,255 960,248 996,240 1032,244 1068,236 1104,230 1148,224 1148,410 60,410"
    fill="url(#chartFill)"
    clip-path="url(#chartClip)"
  />
  <polyline
    points="60,395 96,382 132,378 168,370 204,365 240,358 276,361 312,350 348,344 384,340 420,332 456,338 492,326 528,318 564,312 600,305 636,310 672,298 708,290 744,282 780,276 816,280 852,268 888,261 924,255 960,248 996,240 1032,244 1068,236 1104,230 1148,224"
    fill="none"
    stroke="#22c55e"
    stroke-width="2.5"
    stroke-linejoin="round"
    stroke-linecap="round"
    clip-path="url(#chartClip)"
  />

  <!-- X-axis date labels -->
  <text x="60" y="420" fill="#8b949e" font-size="10" text-anchor="middle">Jan 26</text>
  <text x="204" y="420" fill="#8b949e" font-size="10" text-anchor="middle">Jan 31</text>
  <text x="384" y="420" fill="#8b949e" font-size="10" text-anchor="middle">Feb 5</text>
  <text x="564" y="420" fill="#8b949e" font-size="10" text-anchor="middle">Feb 10</text>
  <text x="744" y="420" fill="#8b949e" font-size="10" text-anchor="middle">Feb 15</text>
  <text x="924" y="420" fill="#8b949e" font-size="10" text-anchor="middle">Feb 20</text>
  <text x="1104" y="420" fill="#8b949e" font-size="10" text-anchor="middle">Feb 25</text>

  <!-- Top Pages Table -->
  <text x="44" y="446" fill="#ffffff" font-size="14" font-weight="600">Top Pages</text>

  <!-- Table header -->
  <rect x="44" y="452" width="1112" height="28" rx="4" fill="#1a2332"/>
  <text x="60" y="471" fill="#8b949e" font-size="11" font-weight="600">URL</text>
  <text x="580" y="471" fill="#8b949e" font-size="11" font-weight="600" text-anchor="middle">Clicks</text>
  <text x="780" y="471" fill="#8b949e" font-size="11" font-weight="600" text-anchor="middle">Position</text>
  <text x="1060" y="471" fill="#8b949e" font-size="11" font-weight="600" text-anchor="middle">Audit Score</text>

  <!-- Row 1 -->
  <rect x="44" y="480" width="1112" height="24" fill="#0d1117"/>
  <text x="60" y="496" fill="#58a6ff" font-size="11" class="mono">/blog/complete-seo-guide</text>
  <text x="580" y="496" fill="#ffffff" font-size="11" text-anchor="middle">4,218</text>
  <text x="780" y="496" fill="#ffffff" font-size="11" text-anchor="middle">3.2</text>
  <rect x="1015" y="483" width="90" height="16" rx="3" fill="#dc2626"/>
  <text x="1060" y="495" fill="#ffffff" font-size="10" font-weight="700" text-anchor="middle">40/100</text>

  <!-- Row 2 -->
  <rect x="44" y="504" width="1112" height="24" fill="#161b22"/>
  <text x="60" y="520" fill="#58a6ff" font-size="11" class="mono">/docs/getting-started</text>
  <text x="580" y="520" fill="#ffffff" font-size="11" text-anchor="middle">3,891</text>
  <text x="780" y="520" fill="#ffffff" font-size="11" text-anchor="middle">5.8</text>
  <rect x="1015" y="507" width="90" height="16" rx="3" fill="#16a34a"/>
  <text x="1060" y="519" fill="#ffffff" font-size="10" font-weight="700" text-anchor="middle">78/100</text>

  <!-- Row 3 -->
  <rect x="44" y="528" width="1112" height="24" fill="#0d1117"/>
  <text x="60" y="544" fill="#58a6ff" font-size="11" class="mono">/features/analytics</text>
  <text x="580" y="544" fill="#ffffff" font-size="11" text-anchor="middle">2,654</text>
  <text x="780" y="544" fill="#ffffff" font-size="11" text-anchor="middle">7.1</text>
  <rect x="1015" y="531" width="90" height="16" rx="3" fill="#16a34a"/>
  <text x="1060" y="543" fill="#ffffff" font-size="10" font-weight="700" text-anchor="middle">92/100</text>

  <!-- Row 4 -->
  <rect x="44" y="552" width="1112" height="24" fill="#161b22"/>
  <text x="60" y="568" fill="#58a6ff" font-size="11" class="mono">/pricing</text>
  <text x="580" y="568" fill="#ffffff" font-size="11" text-anchor="middle">1,847</text>
  <text x="780" y="568" fill="#ffffff" font-size="11" text-anchor="middle">9.4</text>
  <rect x="1015" y="555" width="90" height="16" rx="3" fill="#dc2626"/>
  <text x="1060" y="567" fill="#ffffff" font-size="10" font-weight="700" text-anchor="middle">31/100</text>

  <!-- Row 5 -->
  <rect x="44" y="576" width="1112" height="24" fill="#0d1117"/>
  <text x="60" y="592" fill="#58a6ff" font-size="11" class="mono">/blog/typescript-tips</text>
  <text x="580" y="592" fill="#ffffff" font-size="11" text-anchor="middle">1,203</text>
  <text x="780" y="592" fill="#ffffff" font-size="11" text-anchor="middle">11.7</text>
  <rect x="1015" y="579" width="90" height="16" rx="3" fill="#d97706"/>
  <text x="1060" y="591" fill="#ffffff" font-size="10" font-weight="700" text-anchor="middle">65/100</text>
</svg>
