<svg xmlns="http://www.w3.org/2000/svg" width="1200" height="630" viewBox="0 0 1200 630">
  <defs>
    <style>
      .font-ui { font-family: 'Inter', 'Segoe UI', system-ui, -apple-system, sans-serif; }
      .font-mono { font-family: 'JetBrains Mono', 'Fira Code', 'Cascadia Code', monospace; }
    </style>
    <linearGradient id="bgGrad" x1="0%" y1="0%" x2="100%" y2="100%">
      <stop offset="0%" style="stop-color:#0d1117;stop-opacity:1" />
      <stop offset="100%" style="stop-color:#0d1520;stop-opacity:1" />
    </linearGradient>
    <linearGradient id="panelGrad" x1="0%" y1="0%" x2="0%" y2="100%">
      <stop offset="0%" style="stop-color:#1a2030;stop-opacity:1" />
      <stop offset="100%" style="stop-color:#161b22;stop-opacity:1" />
    </linearGradient>
    <filter id="glow">
      <feGaussianBlur stdDeviation="3" result="coloredBlur"/>
      <feMerge><feMergeNode in="coloredBlur"/><feMergeNode in="SourceGraphic"/></feMerge>
    </filter>
    <filter id="shadow">
      <feDropShadow dx="0" dy="4" stdDeviation="8" flood-color="#000000" flood-opacity="0.5"/>
    </filter>
    <filter id="cardShadow">
      <feDropShadow dx="0" dy="2" stdDeviation="4" flood-color="#000000" flood-opacity="0.4"/>
    </filter>
  </defs>

  <!-- Background -->
  <rect width="1200" height="630" fill="url(#bgGrad)"/>

  <!-- Subtle grid pattern -->
  <defs>
    <pattern id="grid" width="40" height="40" patternUnits="userSpaceOnUse">
      <path d="M 40 0 L 0 0 0 40" fill="none" stroke="#1e2430" stroke-width="0.5"/>
    </pattern>
  </defs>
  <rect width="1200" height="630" fill="url(#grid)" opacity="0.4"/>

  <!-- Decorative blue accent lines -->
  <line x1="0" y1="3" x2="1200" y2="3" stroke="#3b82f6" stroke-width="3" opacity="0.8"/>
  <line x1="0" y1="627" x2="1200" y2="627" stroke="#3b82f6" stroke-width="1" opacity="0.3"/>

  <!-- Top-left package name -->
  <text x="48" y="58" class="font-ui" fill="#3b82f6" font-size="20" font-weight="700" letter-spacing="-0.3px">@power-seo/images</text>

  <!-- Tagline -->
  <text x="48" y="92" class="font-ui" fill="#e6edf3" font-size="22" font-weight="400" letter-spacing="-0.2px">Audit every image. Fix what search engines see.</text>

  <!-- Main panel -->
  <rect x="48" y="118" width="720" height="470" rx="12" fill="url(#panelGrad)" stroke="#30363d" stroke-width="1.5" filter="url(#shadow)"/>

  <!-- Panel header bar -->
  <rect x="48" y="118" width="720" height="52" rx="12" fill="#1e2430"/>
  <rect x="48" y="152" width="720" height="18" fill="#1e2430"/>

  <!-- Panel header dots -->
  <circle cx="76" cy="144" r="6" fill="#ff5f57"/>
  <circle cx="98" cy="144" r="6" fill="#febc2e"/>
  <circle cx="120" cy="144" r="6" fill="#28c840"/>

  <!-- Panel title -->
  <text x="150" y="150" class="font-ui" fill="#3b82f6" font-size="18" font-weight="700">Image Audit</text>

  <!-- Status chips in header -->
  <rect x="540" y="131" width="90" height="26" rx="13" fill="#162032" stroke="#3b82f6" stroke-width="1"/>
  <text x="585" y="149" class="font-ui" fill="#3b82f6" font-size="12" font-weight="600" text-anchor="middle">47 images</text>

  <rect x="642" y="131" width="110" height="26" rx="13" fill="#1a2515" stroke="#22c55e" stroke-width="1"/>
  <text x="697" y="149" class="font-ui" fill="#22c55e" font-size="12" font-weight="600" text-anchor="middle">29 passing</text>

  <!-- Grid: 3×2 image cards -->
  <!-- Row 1 -->
  <!-- Card 1 (top-left) -->
  <rect x="72" y="186" width="210" height="145" rx="8" fill="#1e2430" stroke="#30363d" stroke-width="1" filter="url(#cardShadow)"/>
  <!-- Image thumbnail placeholder with gradient -->
  <rect x="80" y="194" width="194" height="108" rx="5" fill="#252d3a"/>
  <!-- Image icon -->
  <rect x="143" y="220" width="68" height="52" rx="3" fill="#2d3748"/>
  <polygon points="143,260 175,230 211,272 143,272" fill="#374151"/>
  <polygon points="175,240 203,260 203,272 163,272" fill="#4b5563"/>
  <circle cx="196" cy="224" r="7" fill="#6b7280"/>

  <!-- Badge: ALT ✓ -->
  <rect x="84" y="198" width="52" height="20" rx="10" fill="#14532d" stroke="#22c55e" stroke-width="1"/>
  <text x="110" y="213" class="font-ui" fill="#4ade80" font-size="10" font-weight="700" text-anchor="middle">ALT ✓</text>

  <!-- Badge: LAZY ✓ -->
  <rect x="140" y="198" width="58" height="20" rx="10" fill="#14532d" stroke="#22c55e" stroke-width="1"/>
  <text x="169" y="213" class="font-ui" fill="#4ade80" font-size="10" font-weight="700" text-anchor="middle">LAZY ✓</text>

  <!-- Badge: WebP -->
  <rect x="202" y="198" width="44" height="20" rx="10" fill="#1e3a5f" stroke="#3b82f6" stroke-width="1"/>
  <text x="224" y="213" class="font-ui" fill="#60a5fa" font-size="10" font-weight="700" text-anchor="middle">WebP</text>

  <!-- Card label -->
  <text x="177" y="344" class="font-mono" fill="#6e7681" font-size="10" text-anchor="middle">hero-banner.webp</text>

  <!-- Card 2 (top-mid) -->
  <rect x="294" y="186" width="210" height="145" rx="8" fill="#1e2430" stroke="#30363d" stroke-width="1" filter="url(#cardShadow)"/>
  <rect x="302" y="194" width="194" height="108" rx="5" fill="#252d3a"/>
  <rect x="365" y="220" width="68" height="52" rx="3" fill="#2d3748"/>
  <polygon points="365,260 397,230 433,272 365,272" fill="#374151"/>
  <polygon points="397,240 425,260 425,272 385,272" fill="#4b5563"/>
  <circle cx="418" cy="224" r="7" fill="#6b7280"/>

  <!-- Badge: ALT ✓ -->
  <rect x="306" y="198" width="52" height="20" rx="10" fill="#14532d" stroke="#22c55e" stroke-width="1"/>
  <text x="332" y="213" class="font-ui" fill="#4ade80" font-size="10" font-weight="700" text-anchor="middle">ALT ✓</text>

  <!-- Badge: NO LAZY (red) -->
  <rect x="362" y="198" width="66" height="20" rx="10" fill="#450a0a" stroke="#ef4444" stroke-width="1"/>
  <text x="395" y="213" class="font-ui" fill="#f87171" font-size="10" font-weight="700" text-anchor="middle">NO LAZY</text>

  <!-- Badge: PNG (orange) -->
  <rect x="432" y="198" width="40" height="20" rx="10" fill="#431407" stroke="#f97316" stroke-width="1"/>
  <text x="452" y="213" class="font-ui" fill="#fb923c" font-size="10" font-weight="700" text-anchor="middle">PNG</text>

  <text x="399" y="344" class="font-mono" fill="#6e7681" font-size="10" text-anchor="middle">product-shot.png</text>

  <!-- Card 3 (top-right) -->
  <rect x="516" y="186" width="210" height="145" rx="8" fill="#1e2430" stroke="#ef4444" stroke-width="1.5" filter="url(#cardShadow)"/>
  <rect x="524" y="194" width="194" height="108" rx="5" fill="#252d3a"/>
  <rect x="587" y="220" width="68" height="52" rx="3" fill="#2d3748"/>
  <polygon points="587,260 619,230 655,272 587,272" fill="#374151"/>
  <polygon points="619,240 647,260 647,272 607,272" fill="#4b5563"/>
  <circle cx="640" cy="224" r="7" fill="#6b7280"/>

  <!-- Badge: NO ALT (red) -->
  <rect x="528" y="198" width="60" height="20" rx="10" fill="#450a0a" stroke="#ef4444" stroke-width="1"/>
  <text x="558" y="213" class="font-ui" fill="#f87171" font-size="10" font-weight="700" text-anchor="middle">NO ALT</text>

  <!-- Badge: LAZY ✓ -->
  <rect x="592" y="198" width="58" height="20" rx="10" fill="#14532d" stroke="#22c55e" stroke-width="1"/>
  <text x="621" y="213" class="font-ui" fill="#4ade80" font-size="10" font-weight="700" text-anchor="middle">LAZY ✓</text>

  <!-- Badge: JPEG (orange) -->
  <rect x="654" y="198" width="44" height="20" rx="10" fill="#431407" stroke="#f97316" stroke-width="1"/>
  <text x="676" y="213" class="font-ui" fill="#fb923c" font-size="10" font-weight="700" text-anchor="middle">JPEG</text>

  <text x="621" y="344" class="font-mono" fill="#6e7681" font-size="10" text-anchor="middle">team-photo.jpg</text>

  <!-- Row 2 -->
  <!-- Card 4 (bot-left) -->
  <rect x="72" y="346" width="210" height="145" rx="8" fill="#1e2430" stroke="#30363d" stroke-width="1" filter="url(#cardShadow)"/>
  <rect x="80" y="354" width="194" height="108" rx="5" fill="#252d3a"/>
  <rect x="143" y="380" width="68" height="52" rx="3" fill="#2d3748"/>
  <polygon points="143,420 175,390 211,432 143,432" fill="#374151"/>
  <polygon points="175,400 203,420 203,432 163,432" fill="#4b5563"/>
  <circle cx="196" cy="384" r="7" fill="#6b7280"/>

  <rect x="84" y="358" width="52" height="20" rx="10" fill="#14532d" stroke="#22c55e" stroke-width="1"/>
  <text x="110" y="373" class="font-ui" fill="#4ade80" font-size="10" font-weight="700" text-anchor="middle">ALT ✓</text>

  <rect x="140" y="358" width="58" height="20" rx="10" fill="#14532d" stroke="#22c55e" stroke-width="1"/>
  <text x="169" y="373" class="font-ui" fill="#4ade80" font-size="10" font-weight="700" text-anchor="middle">LAZY ✓</text>

  <!-- Badge: AVIF (blue) -->
  <rect x="202" y="358" width="44" height="20" rx="10" fill="#1e3a5f" stroke="#3b82f6" stroke-width="1"/>
  <text x="224" y="373" class="font-ui" fill="#60a5fa" font-size="10" font-weight="700" text-anchor="middle">AVIF</text>

  <text x="177" y="504" class="font-mono" fill="#6e7681" font-size="10" text-anchor="middle">feature-img.avif</text>

  <!-- Card 5 (bot-mid) -->
  <rect x="294" y="346" width="210" height="145" rx="8" fill="#1e2430" stroke="#f59e0b" stroke-width="1.5" filter="url(#cardShadow)"/>
  <rect x="302" y="354" width="194" height="108" rx="5" fill="#252d3a"/>
  <rect x="365" y="380" width="68" height="52" rx="3" fill="#2d3748"/>
  <polygon points="365,420 397,390 433,432 365,432" fill="#374151"/>
  <polygon points="397,400 425,420 425,432 385,432" fill="#4b5563"/>
  <circle cx="418" cy="384" r="7" fill="#6b7280"/>

  <!-- Badge: ALT? (amber) -->
  <rect x="306" y="358" width="48" height="20" rx="10" fill="#431a00" stroke="#f59e0b" stroke-width="1"/>
  <text x="330" y="373" class="font-ui" fill="#fbbf24" font-size="10" font-weight="700" text-anchor="middle">ALT?</text>

  <!-- Badge: NO LAZY (red) -->
  <rect x="358" y="358" width="66" height="20" rx="10" fill="#450a0a" stroke="#ef4444" stroke-width="1"/>
  <text x="391" y="373" class="font-ui" fill="#f87171" font-size="10" font-weight="700" text-anchor="middle">NO LAZY</text>

  <!-- Badge: PNG (orange) -->
  <rect x="428" y="358" width="40" height="20" rx="10" fill="#431407" stroke="#f97316" stroke-width="1"/>
  <text x="448" y="373" class="font-ui" fill="#fb923c" font-size="10" font-weight="700" text-anchor="middle">PNG</text>

  <text x="399" y="504" class="font-mono" fill="#6e7681" font-size="10" text-anchor="middle">blog-cover.png</text>

  <!-- Card 6 (bot-right) -->
  <rect x="516" y="346" width="210" height="145" rx="8" fill="#1e2430" stroke="#30363d" stroke-width="1" filter="url(#cardShadow)"/>
  <rect x="524" y="354" width="194" height="108" rx="5" fill="#252d3a"/>
  <rect x="587" y="380" width="68" height="52" rx="3" fill="#2d3748"/>
  <polygon points="587,420 619,390 655,432 587,432" fill="#374151"/>
  <polygon points="619,400 647,420 647,432 607,432" fill="#4b5563"/>
  <circle cx="640" cy="384" r="7" fill="#6b7280"/>

  <rect x="528" y="358" width="52" height="20" rx="10" fill="#14532d" stroke="#22c55e" stroke-width="1"/>
  <text x="554" y="373" class="font-ui" fill="#4ade80" font-size="10" font-weight="700" text-anchor="middle">ALT ✓</text>

  <rect x="584" y="358" width="58" height="20" rx="10" fill="#14532d" stroke="#22c55e" stroke-width="1"/>
  <text x="613" y="373" class="font-ui" fill="#4ade80" font-size="10" font-weight="700" text-anchor="middle">LAZY ✓</text>

  <rect x="646" y="358" width="44" height="20" rx="10" fill="#1e3a5f" stroke="#3b82f6" stroke-width="1"/>
  <text x="668" y="373" class="font-ui" fill="#60a5fa" font-size="10" font-weight="700" text-anchor="middle">WebP</text>

  <text x="621" y="504" class="font-mono" fill="#6e7681" font-size="10" text-anchor="middle">cta-banner.webp</text>

  <!-- Score bar -->
  <rect x="72" y="520" width="696" height="54" rx="8" fill="#1a2030" stroke="#30363d" stroke-width="1"/>
  <rect x="88" y="532" width="450" height="30" rx="6" fill="#0d1117"/>
  <rect x="88" y="532" width="278" height="30" rx="6" fill="#1d4ed8"/>
  <text x="282" y="552" class="font-ui" fill="#93c5fd" font-size="13" font-weight="600" text-anchor="middle">62 / 100</text>
  <text x="556" y="553" class="font-ui" fill="#6e7681" font-size="13" text-anchor="middle">Score</text>

  <!-- Right side panel: Score summary -->
  <rect x="800" y="118" width="360" height="470" rx="12" fill="url(#panelGrad)" stroke="#30363d" stroke-width="1.5" filter="url(#shadow)"/>

  <!-- Score circle -->
  <circle cx="980" cy="248" r="90" fill="none" stroke="#1e2430" stroke-width="16"/>
  <circle cx="980" cy="248" r="90" fill="none" stroke="#3b82f6" stroke-width="16"
    stroke-dasharray="354" stroke-dashoffset="135"
    stroke-linecap="round" transform="rotate(-90 980 248)"/>
  <text x="980" y="238" class="font-ui" fill="#3b82f6" font-size="48" font-weight="800" text-anchor="middle">62</text>
  <text x="980" y="268" class="font-ui" fill="#6e7681" font-size="16" font-weight="400" text-anchor="middle">/ 100</text>
  <text x="980" y="292" class="font-ui" fill="#e6edf3" font-size="14" font-weight="600" text-anchor="middle">Image SEO Score</text>

  <!-- Stats breakdown -->
  <rect x="824" y="356" width="312" height="80" rx="8" fill="#1a2030" stroke="#30363d" stroke-width="1"/>

  <!-- Stat items -->
  <text x="840" y="378" class="font-ui" fill="#6e7681" font-size="12">ALT Text</text>
  <rect x="840" y="384" width="200" height="6" rx="3" fill="#1e2430"/>
  <rect x="840" y="384" width="148" height="6" rx="3" fill="#22c55e"/>
  <text x="1050" y="393" class="font-ui" fill="#4ade80" font-size="12" text-anchor="end">74%</text>

  <text x="840" y="410" class="font-ui" fill="#6e7681" font-size="12">Lazy Load</text>
  <rect x="840" y="416" width="200" height="6" rx="3" fill="#1e2430"/>
  <rect x="840" y="416" width="96" height="6" rx="3" fill="#f59e0b"/>
  <text x="1050" y="425" class="font-ui" fill="#fbbf24" font-size="12" text-anchor="end">48%</text>

  <!-- Issues list -->
  <text x="824" y="462" class="font-ui" fill="#e6edf3" font-size="14" font-weight="700">Top Issues</text>

  <rect x="824" y="470" width="312" height="28" rx="5" fill="#2d1010"/>
  <circle cx="840" cy="484" r="4" fill="#ef4444"/>
  <text x="852" y="489" class="font-ui" fill="#f87171" font-size="12">12 images missing alt text</text>

  <rect x="824" y="502" width="312" height="28" rx="5" fill="#2a1e00"/>
  <circle cx="840" cy="516" r="4" fill="#f59e0b"/>
  <text x="852" y="521" class="font-ui" fill="#fbbf24" font-size="12">16 images not lazy loaded</text>

  <rect x="824" y="534" width="312" height="28" rx="5" fill="#162032"/>
  <circle cx="840" cy="548" r="4" fill="#3b82f6"/>
  <text x="852" y="553" class="font-ui" fill="#60a5fa" font-size="12">1.2 MB savings available</text>

  <!-- Bottom tagline -->
  <text x="600" y="610" class="font-ui" fill="#6e7681" font-size="14" text-anchor="middle">npm install @power-seo/images</text>
</svg>
