<svg width="1200" height="480" viewBox="0 0 1200 480" xmlns="http://www.w3.org/2000/svg">
  <defs>
    <linearGradient id="bg" x1="0" y1="0" x2="1" y2="1" gradientUnits="objectBoundingBox">
      <stop offset="0%" stop-color="#070d1f"/><stop offset="100%" stop-color="#0d1a2e"/>
    </linearGradient>
    <linearGradient id="accent" x1="0" y1="0" x2="1" y2="0" gradientUnits="objectBoundingBox">
      <stop offset="0%" stop-color="#f59e0b"/><stop offset="100%" stop-color="#10b981"/>
    </linearGradient>
    <pattern id="dots" width="30" height="30" patternUnits="userSpaceOnUse">
      <circle cx="1.5" cy="1.5" r="1.5" fill="#1e293b" opacity="0.45"/>
    </pattern>
  </defs>
  <rect width="1200" height="480" fill="url(#bg)"/>
  <rect width="1200" height="480" fill="url(#dots)"/>
  <rect x="0" y="0" width="1200" height="4" fill="url(#accent)"/>

  <text x="600" y="36" font-family="system-ui,-apple-system,sans-serif" font-size="16" font-weight="600" fill="#f8fafc" text-anchor="middle">Page Audit Result — auditPage() Output</text>
  <text x="600" y="54" font-family="system-ui,-apple-system,sans-serif" font-size="12" fill="#475569" text-anchor="middle">Full breakdown: score · categories · per-rule pass/warning/error with recommendations</text>

  <rect x="40" y="68" width="1120" height="384" rx="10" fill="#0d1525" stroke="#1e293b"/>
  <rect x="40" y="68" width="1120" height="32" rx="10" fill="#111827"/>
  <rect x="40" y="88" width="1120" height="12" fill="#111827"/>
  <circle cx="62" cy="84" r="5" fill="#ef4444" opacity="0.6"/>
  <circle cx="80" cy="84" r="5" fill="#f59e0b" opacity="0.6"/>
  <circle cx="98" cy="84" r="5" fill="#10b981" opacity="0.6"/>
  <text x="600" y="88" font-family="system-ui,-apple-system,sans-serif" font-size="9" fill="#475569" text-anchor="middle">yourapp.com/audit/result?url=/blog/nextjs-seo-guide</text>

  <!-- Left panel: score + categories -->
  <rect x="56" y="112" width="240" height="328" rx="8" fill="#111827" stroke="#1e293b"/>
  <text x="176" y="134" font-family="system-ui,-apple-system,sans-serif" font-size="12" font-weight="600" fill="#f8fafc" text-anchor="middle">Page Score</text>
  <text x="176" y="148" font-family="system-ui,-apple-system,sans-serif" font-size="9" fill="#475569" text-anchor="middle">/blog/nextjs-seo-guide</text>

  <!-- Big score circle -->
  <circle cx="176" cy="210" r="60" fill="#0d1525" stroke="#1e293b" stroke-width="2"/>
  <path d="M 176 150 A 60 60 0 0 1 236 210" stroke="#ef4444" stroke-width="8" fill="none" stroke-linecap="round"/>
  <path d="M 176 150 A 60 60 0 1 1 134 246" stroke="#f59e0b" stroke-width="8" fill="none" stroke-linecap="round"/>
  <path d="M 134 246 A 60 60 0 0 1 176 270" stroke="#10b981" stroke-width="8" fill="none" stroke-linecap="round"/>
  <text x="176" y="205" font-family="system-ui,-apple-system,sans-serif" font-size="36" font-weight="700" fill="#f8fafc" text-anchor="middle">78</text>
  <text x="176" y="222" font-family="system-ui,-apple-system,sans-serif" font-size="11" fill="#94a3b8" text-anchor="middle">/ 100</text>

  <!-- Category scores -->
  <line x1="72" y1="286" x2="280" y2="286" stroke="#1e293b" stroke-width="1"/>

  <text x="72" y="306" font-family="system-ui,-apple-system,sans-serif" font-size="10" fill="#64748b">Meta Tags</text>
  <text x="280" y="306" font-family="system-ui,-apple-system,sans-serif" font-size="10" fill="#10b981" text-anchor="end">80 / 100</text>
  <rect x="72" y="310" width="208" height="6" rx="3" fill="#1e293b"/>
  <rect x="72" y="310" width="166" height="6" rx="3" fill="#10b981" opacity="0.8"/>

  <text x="72" y="332" font-family="system-ui,-apple-system,sans-serif" font-size="10" fill="#64748b">Content</text>
  <text x="280" y="332" font-family="system-ui,-apple-system,sans-serif" font-size="10" fill="#f59e0b" text-anchor="end">70 / 100</text>
  <rect x="72" y="336" width="208" height="6" rx="3" fill="#1e293b"/>
  <rect x="72" y="336" width="145" height="6" rx="3" fill="#f59e0b" opacity="0.8"/>

  <text x="72" y="358" font-family="system-ui,-apple-system,sans-serif" font-size="10" fill="#64748b">Structure</text>
  <text x="280" y="358" font-family="system-ui,-apple-system,sans-serif" font-size="10" fill="#06b6d4" text-anchor="end">90 / 100</text>
  <rect x="72" y="362" width="208" height="6" rx="3" fill="#1e293b"/>
  <rect x="72" y="362" width="187" height="6" rx="3" fill="#06b6d4" opacity="0.8"/>

  <text x="72" y="384" font-family="system-ui,-apple-system,sans-serif" font-size="10" fill="#64748b">Performance</text>
  <text x="280" y="384" font-family="system-ui,-apple-system,sans-serif" font-size="10" fill="#8b5cf6" text-anchor="end">50 / 100</text>
  <rect x="72" y="388" width="208" height="6" rx="3" fill="#1e293b"/>
  <rect x="72" y="388" width="104" height="6" rx="3" fill="#8b5cf6" opacity="0.8"/>

  <line x1="72" y1="408" x2="280" y2="408" stroke="#1e293b" stroke-width="1"/>
  <text x="72" y="424" font-family="system-ui,-apple-system,sans-serif" font-size="9" fill="#64748b">Weighted: 30% · 30% · 25% · 15%</text>

  <!-- Right panel: rule results list -->
  <rect x="312" y="112" width="848" height="328" rx="8" fill="#111827" stroke="#1e293b"/>
  <text x="332" y="134" font-family="system-ui,-apple-system,sans-serif" font-size="12" font-weight="600" fill="#f8fafc">Rule Results</text>
  <text x="332" y="148" font-family="system-ui,-apple-system,sans-serif" font-size="9" fill="#475569">auditPage() → PageAuditResult · 22 rules checked across 4 categories</text>

  <!-- Rule list header -->
  <rect x="328" y="154" width="816" height="20" rx="3" fill="#1e293b"/>
  <text x="344" y="168" font-family="system-ui,-apple-system,sans-serif" font-size="9" fill="#64748b">Rule</text>
  <text x="700" y="168" font-family="system-ui,-apple-system,sans-serif" font-size="9" fill="#64748b">Status</text>
  <text x="780" y="168" font-family="system-ui,-apple-system,sans-serif" font-size="9" fill="#64748b">Score</text>
  <text x="840" y="168" font-family="system-ui,-apple-system,sans-serif" font-size="9" fill="#64748b">Message / Recommendation</text>

  <!-- META RULES section -->
  <rect x="328" y="176" width="816" height="16" rx="2" fill="#0d1525"/>
  <text x="344" y="187" font-family="system-ui,-apple-system,sans-serif" font-size="9" font-weight="600" fill="#f59e0b">META TAGS  ·  runMetaRules()</text>

  <!-- Rule rows -->
  <text x="344" y="204" font-family="system-ui,-apple-system,sans-serif" font-size="10" fill="#94a3b8">Title tag present &amp; length</text>
  <rect x="694" y="194" width="52" height="16" rx="8" fill="#10b981" fill-opacity="0.2"/>
  <text x="720" y="206" font-family="system-ui,-apple-system,sans-serif" font-size="9" fill="#6ee7b7" text-anchor="middle">pass</text>
  <text x="782" y="204" font-family="system-ui,-apple-system,sans-serif" font-size="10" fill="#6ee7b7">100</text>
  <text x="840" y="204" font-family="system-ui,-apple-system,sans-serif" font-size="9" fill="#475569">Title is 58 chars — within 50–60 range</text>
  <line x1="328" y1="210" x2="1144" y2="210" stroke="#1e293b" stroke-width="0.5"/>

  <text x="344" y="224" font-family="system-ui,-apple-system,sans-serif" font-size="10" fill="#94a3b8">Meta description</text>
  <rect x="694" y="214" width="52" height="16" rx="8" fill="#ef4444" fill-opacity="0.2"/>
  <text x="720" y="226" font-family="system-ui,-apple-system,sans-serif" font-size="9" fill="#fca5a5" text-anchor="middle">error</text>
  <text x="782" y="224" font-family="system-ui,-apple-system,sans-serif" font-size="10" fill="#fca5a5">0</text>
  <text x="840" y="224" font-family="system-ui,-apple-system,sans-serif" font-size="9" fill="#fca5a5">Missing — add a 120–155 char description</text>
  <line x1="328" y1="230" x2="1144" y2="230" stroke="#1e293b" stroke-width="0.5"/>

  <text x="344" y="244" font-family="system-ui,-apple-system,sans-serif" font-size="10" fill="#94a3b8">Canonical URL set</text>
  <rect x="694" y="234" width="52" height="16" rx="8" fill="#10b981" fill-opacity="0.2"/>
  <text x="720" y="246" font-family="system-ui,-apple-system,sans-serif" font-size="9" fill="#6ee7b7" text-anchor="middle">pass</text>
  <text x="782" y="244" font-family="system-ui,-apple-system,sans-serif" font-size="10" fill="#6ee7b7">100</text>
  <text x="840" y="244" font-family="system-ui,-apple-system,sans-serif" font-size="9" fill="#475569">Canonical points to self</text>
  <line x1="328" y1="250" x2="1144" y2="250" stroke="#1e293b" stroke-width="0.5"/>

  <!-- CONTENT RULES section -->
  <rect x="328" y="252" width="816" height="16" rx="2" fill="#0d1525"/>
  <text x="344" y="263" font-family="system-ui,-apple-system,sans-serif" font-size="9" font-weight="600" fill="#10b981">CONTENT  ·  runContentRules()</text>

  <text x="344" y="280" font-family="system-ui,-apple-system,sans-serif" font-size="10" fill="#94a3b8">H1 presence &amp; uniqueness</text>
  <rect x="694" y="270" width="52" height="16" rx="8" fill="#10b981" fill-opacity="0.2"/>
  <text x="720" y="282" font-family="system-ui,-apple-system,sans-serif" font-size="9" fill="#6ee7b7" text-anchor="middle">pass</text>
  <text x="782" y="280" font-family="system-ui,-apple-system,sans-serif" font-size="10" fill="#6ee7b7">100</text>
  <text x="840" y="280" font-family="system-ui,-apple-system,sans-serif" font-size="9" fill="#475569">Single H1 found</text>
  <line x1="328" y1="286" x2="1144" y2="286" stroke="#1e293b" stroke-width="0.5"/>

  <text x="344" y="300" font-family="system-ui,-apple-system,sans-serif" font-size="10" fill="#94a3b8">Word count</text>
  <rect x="694" y="290" width="52" height="16" rx="8" fill="#f59e0b" fill-opacity="0.2"/>
  <text x="720" y="302" font-family="system-ui,-apple-system,sans-serif" font-size="9" fill="#fcd34d" text-anchor="middle">warning</text>
  <text x="782" y="300" font-family="system-ui,-apple-system,sans-serif" font-size="10" fill="#fcd34d">60</text>
  <text x="840" y="300" font-family="system-ui,-apple-system,sans-serif" font-size="9" fill="#fcd34d">820 words — recommend 1200+ for this topic</text>
  <line x1="328" y1="306" x2="1144" y2="306" stroke="#1e293b" stroke-width="0.5"/>

  <text x="344" y="320" font-family="system-ui,-apple-system,sans-serif" font-size="10" fill="#94a3b8">Image alt text</text>
  <rect x="694" y="310" width="52" height="16" rx="8" fill="#f59e0b" fill-opacity="0.2"/>
  <text x="720" y="322" font-family="system-ui,-apple-system,sans-serif" font-size="9" fill="#fcd34d" text-anchor="middle">warning</text>
  <text x="782" y="320" font-family="system-ui,-apple-system,sans-serif" font-size="10" fill="#fcd34d">50</text>
  <text x="840" y="320" font-family="system-ui,-apple-system,sans-serif" font-size="9" fill="#fcd34d">3 of 7 images missing alt text</text>
  <line x1="328" y1="326" x2="1144" y2="326" stroke="#1e293b" stroke-width="0.5"/>

  <!-- STRUCTURE RULES section -->
  <rect x="328" y="328" width="816" height="16" rx="2" fill="#0d1525"/>
  <text x="344" y="339" font-family="system-ui,-apple-system,sans-serif" font-size="9" font-weight="600" fill="#06b6d4">STRUCTURE  ·  runStructureRules()</text>

  <text x="344" y="356" font-family="system-ui,-apple-system,sans-serif" font-size="10" fill="#94a3b8">Heading hierarchy (H1→H2→H3)</text>
  <rect x="694" y="346" width="52" height="16" rx="8" fill="#10b981" fill-opacity="0.2"/>
  <text x="720" y="358" font-family="system-ui,-apple-system,sans-serif" font-size="9" fill="#6ee7b7" text-anchor="middle">pass</text>
  <text x="782" y="356" font-family="system-ui,-apple-system,sans-serif" font-size="10" fill="#6ee7b7">100</text>
  <text x="840" y="356" font-family="system-ui,-apple-system,sans-serif" font-size="9" fill="#475569">Correct hierarchy — no skipped levels</text>
  <line x1="328" y1="362" x2="1144" y2="362" stroke="#1e293b" stroke-width="0.5"/>

  <!-- PERFORMANCE RULES section -->
  <rect x="328" y="364" width="816" height="16" rx="2" fill="#0d1525"/>
  <text x="344" y="375" font-family="system-ui,-apple-system,sans-serif" font-size="9" font-weight="600" fill="#8b5cf6">PERFORMANCE  ·  runPerformanceRules()</text>

  <text x="344" y="392" font-family="system-ui,-apple-system,sans-serif" font-size="10" fill="#94a3b8">Response time</text>
  <rect x="694" y="382" width="52" height="16" rx="8" fill="#ef4444" fill-opacity="0.2"/>
  <text x="720" y="394" font-family="system-ui,-apple-system,sans-serif" font-size="9" fill="#fca5a5" text-anchor="middle">error</text>
  <text x="782" y="392" font-family="system-ui,-apple-system,sans-serif" font-size="10" fill="#fca5a5">0</text>
  <text x="840" y="392" font-family="system-ui,-apple-system,sans-serif" font-size="9" fill="#fca5a5">2.8s — exceeds 2s threshold. Target &lt;1.5s</text>
  <line x1="328" y1="398" x2="1144" y2="398" stroke="#1e293b" stroke-width="0.5"/>

  <text x="332" y="424" font-family="system-ui,-apple-system,sans-serif" font-size="9" fill="#475569">2 errors · 3 warnings · 17 passed · result.recommendations[] contains 5 action items</text>

  <rect x="0" y="476" width="1200" height="4" fill="url(#accent)"/>
</svg>
