<svg width="900" height="500" viewBox="0 0 900 500" xmlns="http://www.w3.org/2000/svg">
  <defs>
    <style>
      .font-ui { font-family: 'Inter', 'Segoe UI', system-ui, sans-serif; }
      .font-mono { font-family: 'JetBrains Mono', 'Fira Code', 'Cascadia Code', monospace; }
    </style>
    <marker id="arrowhead" markerWidth="10" markerHeight="7" refX="10" refY="3.5" orient="auto">
      <polygon points="0 0, 10 3.5, 0 7" fill="#ef4444"/>
    </marker>
  </defs>

  <!-- Background -->
  <rect width="900" height="500" fill="#0d1117"/>

  <!-- ===================== LEFT PANEL: Before ===================== -->
  <rect x="30" y="30" width="370" height="420" rx="10" fill="#161b22" stroke="#ef4444" stroke-width="1.5"/>

  <!-- "Before" label -->
  <text x="215" y="68" class="font-ui" font-size="20" font-weight="700" fill="#ef4444" text-anchor="middle">Before</text>
  <line x1="60" y1="78" x2="370" y2="78" stroke="#ef4444" stroke-width="1" opacity="0.3"/>

  <!-- Page icons grid: 5 columns × 5 rows = 25 items -->
  <!-- Each page icon: small rect 32×22 with checkbox -->
  <!-- Row 1 -->
  <rect x="65"  y="94"  width="32" height="22" rx="2" fill="#1f2937" stroke="#374151" stroke-width="1"/>
  <rect x="65"  y="120" width="18" height="3"  rx="1" fill="#374151"/>
  <rect x="65"  y="125" width="28" height="2"  rx="1" fill="#374151"/>
  <!-- checkbox: unchecked -->
  <rect x="101" y="97"  width="12" height="12" rx="2" fill="none" stroke="#ef4444" stroke-width="1.5" opacity="0.6"/>

  <rect x="125" y="94"  width="32" height="22" rx="2" fill="#1f2937" stroke="#374151" stroke-width="1"/>
  <rect x="125" y="120" width="18" height="3"  rx="1" fill="#374151"/>
  <rect x="125" y="125" width="28" height="2"  rx="1" fill="#374151"/>
  <rect x="161" y="97"  width="12" height="12" rx="2" fill="none" stroke="#ef4444" stroke-width="1.5" opacity="0.6"/>

  <rect x="185" y="94"  width="32" height="22" rx="2" fill="#1f2937" stroke="#374151" stroke-width="1"/>
  <rect x="185" y="120" width="18" height="3"  rx="1" fill="#374151"/>
  <rect x="185" y="125" width="28" height="2"  rx="1" fill="#374151"/>
  <rect x="221" y="97"  width="12" height="12" rx="2" fill="none" stroke="#ef4444" stroke-width="1.5" opacity="0.6"/>

  <rect x="245" y="94"  width="32" height="22" rx="2" fill="#1f2937" stroke="#374151" stroke-width="1"/>
  <rect x="245" y="120" width="18" height="3"  rx="1" fill="#374151"/>
  <rect x="245" y="125" width="28" height="2"  rx="1" fill="#374151"/>
  <rect x="281" y="97"  width="12" height="12" rx="2" fill="none" stroke="#ef4444" stroke-width="1.5" opacity="0.6"/>

  <rect x="305" y="94"  width="32" height="22" rx="2" fill="#1f2937" stroke="#374151" stroke-width="1"/>
  <rect x="305" y="120" width="18" height="3"  rx="1" fill="#374151"/>
  <rect x="305" y="125" width="28" height="2"  rx="1" fill="#374151"/>
  <rect x="341" y="97"  width="12" height="12" rx="2" fill="none" stroke="#ef4444" stroke-width="1.5" opacity="0.6"/>

  <!-- Row 2 -->
  <rect x="65"  y="140" width="32" height="22" rx="2" fill="#1f2937" stroke="#374151" stroke-width="1"/>
  <rect x="65"  y="166" width="18" height="3"  rx="1" fill="#374151"/>
  <rect x="65"  y="171" width="28" height="2"  rx="1" fill="#374151"/>
  <rect x="101" y="143" width="12" height="12" rx="2" fill="none" stroke="#ef4444" stroke-width="1.5" opacity="0.6"/>

  <rect x="125" y="140" width="32" height="22" rx="2" fill="#1f2937" stroke="#374151" stroke-width="1"/>
  <rect x="125" y="166" width="18" height="3"  rx="1" fill="#374151"/>
  <rect x="125" y="171" width="28" height="2"  rx="1" fill="#374151"/>
  <rect x="161" y="143" width="12" height="12" rx="2" fill="none" stroke="#ef4444" stroke-width="1.5" opacity="0.6"/>

  <rect x="185" y="140" width="32" height="22" rx="2" fill="#1f2937" stroke="#374151" stroke-width="1"/>
  <rect x="185" y="166" width="18" height="3"  rx="1" fill="#374151"/>
  <rect x="185" y="171" width="28" height="2"  rx="1" fill="#374151"/>
  <rect x="221" y="143" width="12" height="12" rx="2" fill="none" stroke="#ef4444" stroke-width="1.5" opacity="0.6"/>

  <rect x="245" y="140" width="32" height="22" rx="2" fill="#1f2937" stroke="#374151" stroke-width="1"/>
  <rect x="245" y="166" width="18" height="3"  rx="1" fill="#374151"/>
  <rect x="245" y="171" width="28" height="2"  rx="1" fill="#374151"/>
  <rect x="281" y="143" width="12" height="12" rx="2" fill="none" stroke="#ef4444" stroke-width="1.5" opacity="0.6"/>

  <rect x="305" y="140" width="32" height="22" rx="2" fill="#1f2937" stroke="#374151" stroke-width="1"/>
  <rect x="305" y="166" width="18" height="3"  rx="1" fill="#374151"/>
  <rect x="305" y="171" width="28" height="2"  rx="1" fill="#374151"/>
  <rect x="341" y="143" width="12" height="12" rx="2" fill="none" stroke="#ef4444" stroke-width="1.5" opacity="0.6"/>

  <!-- Row 3 -->
  <rect x="65"  y="186" width="32" height="22" rx="2" fill="#1f2937" stroke="#374151" stroke-width="1"/>
  <rect x="65"  y="212" width="18" height="3"  rx="1" fill="#374151"/>
  <rect x="101" y="189" width="12" height="12" rx="2" fill="none" stroke="#ef4444" stroke-width="1.5" opacity="0.6"/>

  <rect x="125" y="186" width="32" height="22" rx="2" fill="#1f2937" stroke="#374151" stroke-width="1"/>
  <rect x="125" y="212" width="18" height="3"  rx="1" fill="#374151"/>
  <rect x="161" y="189" width="12" height="12" rx="2" fill="none" stroke="#ef4444" stroke-width="1.5" opacity="0.6"/>

  <rect x="185" y="186" width="32" height="22" rx="2" fill="#1f2937" stroke="#374151" stroke-width="1"/>
  <rect x="185" y="212" width="18" height="3"  rx="1" fill="#374151"/>
  <rect x="221" y="189" width="12" height="12" rx="2" fill="none" stroke="#ef4444" stroke-width="1.5" opacity="0.6"/>

  <rect x="245" y="186" width="32" height="22" rx="2" fill="#1f2937" stroke="#374151" stroke-width="1"/>
  <rect x="245" y="212" width="18" height="3"  rx="1" fill="#374151"/>
  <rect x="281" y="189" width="12" height="12" rx="2" fill="none" stroke="#ef4444" stroke-width="1.5" opacity="0.6"/>

  <rect x="305" y="186" width="32" height="22" rx="2" fill="#1f2937" stroke="#374151" stroke-width="1"/>
  <rect x="305" y="212" width="18" height="3"  rx="1" fill="#374151"/>
  <rect x="341" y="189" width="12" height="12" rx="2" fill="none" stroke="#ef4444" stroke-width="1.5" opacity="0.6"/>

  <!-- Row 4 -->
  <rect x="65"  y="232" width="32" height="22" rx="2" fill="#1f2937" stroke="#374151" stroke-width="1"/>
  <rect x="101" y="235" width="12" height="12" rx="2" fill="none" stroke="#ef4444" stroke-width="1.5" opacity="0.6"/>

  <rect x="125" y="232" width="32" height="22" rx="2" fill="#1f2937" stroke="#374151" stroke-width="1"/>
  <rect x="161" y="235" width="12" height="12" rx="2" fill="none" stroke="#ef4444" stroke-width="1.5" opacity="0.6"/>

  <rect x="185" y="232" width="32" height="22" rx="2" fill="#1f2937" stroke="#374151" stroke-width="1"/>
  <rect x="221" y="235" width="12" height="12" rx="2" fill="none" stroke="#ef4444" stroke-width="1.5" opacity="0.6"/>

  <rect x="245" y="232" width="32" height="22" rx="2" fill="#1f2937" stroke="#374151" stroke-width="1"/>
  <rect x="281" y="235" width="12" height="12" rx="2" fill="none" stroke="#ef4444" stroke-width="1.5" opacity="0.6"/>

  <rect x="305" y="232" width="32" height="22" rx="2" fill="#1f2937" stroke="#374151" stroke-width="1"/>
  <rect x="341" y="235" width="12" height="12" rx="2" fill="none" stroke="#ef4444" stroke-width="1.5" opacity="0.6"/>

  <!-- "..." more indicator -->
  <text x="215" y="278" class="font-mono" font-size="18" fill="#6b7280" text-anchor="middle">· · · (500 pages)</text>

  <!-- Red pain text -->
  <rect x="50" y="292" width="330" height="52" rx="6" fill="#ef444415"/>
  <text x="215" y="313" class="font-ui" font-size="11" fill="#ef4444" text-anchor="middle" font-weight="600">15 checks × 500 pages = 7,500</text>
  <text x="215" y="330" class="font-ui" font-size="11" fill="#ef4444" text-anchor="middle" font-weight="600">manual tasks — impossible</text>

  <!-- Big red X -->
  <text x="215" y="390" class="font-ui" font-size="56" fill="#ef4444" text-anchor="middle" opacity="0.7">✗</text>

  <!-- ===================== CENTER: Arrow ===================== -->
  <line x1="420" y1="250" x2="478" y2="250" stroke="#ef4444" stroke-width="3" marker-end="url(#arrowhead)"/>

  <!-- ===================== RIGHT PANEL: After ===================== -->
  <rect x="500" y="30" width="370" height="420" rx="10" fill="#161b22" stroke="#22c55e" stroke-width="1.5"/>

  <!-- "After" label -->
  <text x="685" y="68" class="font-ui" font-size="20" font-weight="700" fill="#22c55e" text-anchor="middle">After</text>
  <line x1="530" y1="78" x2="840" y2="78" stroke="#22c55e" stroke-width="1" opacity="0.3"/>

  <!-- Code snippet box -->
  <rect x="526" y="94" width="318" height="54" rx="6" fill="#0d1117" stroke="#374151" stroke-width="1"/>
  <!-- Window dots -->
  <circle cx="542" cy="107" r="4" fill="#ef4444" opacity="0.7"/>
  <circle cx="555" cy="107" r="4" fill="#f59e0b" opacity="0.7"/>
  <circle cx="568" cy="107" r="4" fill="#22c55e" opacity="0.7"/>
  <!-- Code text -->
  <text x="536" y="132" class="font-mono" font-size="11" fill="#6b7280">const results = await </text>
  <text x="536" y="132" class="font-mono" font-size="11" fill="#6b7280" xml:space="preserve">const results = await </text>

  <!-- Using tspan for colored function name -->
  <text x="536" y="132" class="font-mono" font-size="11">
    <tspan fill="#6b7280">const results = await </tspan><tspan fill="#ef4444">auditSite</tspan><tspan fill="#e5e7eb">(urls)</tspan>
  </text>

  <!-- Result summary card -->
  <rect x="526" y="162" width="318" height="80" rx="6" fill="#1e2430" stroke="#22c55e" stroke-width="1" opacity="0.8"/>
  <text x="545" y="185" class="font-ui" font-size="11" fill="#22c55e" font-weight="600">AUDIT COMPLETE</text>
  <line x1="540" y1="192" x2="830" y2="192" stroke="#22c55e" stroke-width="0.5" opacity="0.4"/>
  <text x="545" y="210" class="font-ui" font-size="11" fill="#a3e635">500 pages audited</text>
  <text x="545" y="226" class="font-ui" font-size="11" fill="#a3e635">Avg score: 71/100  ·  23 critical issues found</text>

  <!-- Big green checkmark -->
  <text x="685" y="390" class="font-ui" font-size="56" fill="#22c55e" text-anchor="middle" opacity="0.7">✓</text>

  <!-- Benefit bullets -->
  <text x="540" y="280" class="font-ui" font-size="12" fill="#86efac">✓  Runs in seconds, not weeks</text>
  <text x="540" y="300" class="font-ui" font-size="12" fill="#86efac">✓  Zero manual effort</text>
  <text x="540" y="320" class="font-ui" font-size="12" fill="#86efac">✓  Every page, every check</text>
  <text x="540" y="340" class="font-ui" font-size="12" fill="#86efac">✓  Integrates with CI/CD pipelines</text>

  <!-- Caption bottom center -->
  <text x="450" y="477" class="font-ui" font-size="16" fill="#ffffff" text-anchor="middle" letter-spacing="0.3">Complete site audit in seconds. Not weeks.</text>
</svg>
