<svg xmlns="http://www.w3.org/2000/svg" viewBox="0 0 1280 280" width="1280" height="280">
  <defs>
    <linearGradient id="bg" x1="0%" y1="0%" x2="100%" y2="100%">
      <stop offset="0%" style="stop-color:#0f172a"/>
      <stop offset="100%" style="stop-color:#1e1b4b"/>
    </linearGradient>
    <linearGradient id="accent" x1="0%" y1="0%" x2="100%" y2="0%">
      <stop offset="0%" style="stop-color:#10b981"/>
      <stop offset="100%" style="stop-color:#6ee7b7"/>
    </linearGradient>
    <linearGradient id="pill" x1="0%" y1="0%" x2="100%" y2="0%">
      <stop offset="0%" style="stop-color:#10b981;stop-opacity:0.2"/>
      <stop offset="100%" style="stop-color:#6ee7b7;stop-opacity:0.2"/>
    </linearGradient>
  </defs>
  <rect width="1280" height="280" fill="url(#bg)" rx="12"/>
  <g stroke="#ffffff" stroke-opacity="0.03" stroke-width="1">
    <line x1="0" y1="56" x2="1280" y2="56"/>
    <line x1="0" y1="112" x2="1280" y2="112"/>
    <line x1="0" y1="168" x2="1280" y2="168"/>
    <line x1="0" y1="224" x2="1280" y2="224"/>
    <line x1="256" y1="0" x2="256" y2="280"/>
    <line x1="512" y1="0" x2="512" y2="280"/>
    <line x1="768" y1="0" x2="768" y2="280"/>
    <line x1="1024" y1="0" x2="1024" y2="280"/>
  </g>
  <circle cx="1180" cy="60" r="90" fill="#10b981" fill-opacity="0.06"/>
  <circle cx="1220" cy="30" r="50" fill="#6ee7b7" fill-opacity="0.06"/>
  <circle cx="80" cy="230" r="70" fill="#10b981" fill-opacity="0.05"/>
  <rect x="80" y="96" width="6" height="88" rx="3" fill="url(#accent)"/>
  <text x="108" y="158" font-family="-apple-system,BlinkMacSystemFont,'Segoe UI',Helvetica,Arial,sans-serif" font-size="64" font-weight="800" letter-spacing="-2" fill="url(#accent)">@power-seo/sitemap</text>
  <text x="110" y="195" font-family="-apple-system,BlinkMacSystemFont,'Segoe UI',Helvetica,Arial,sans-serif" font-size="20" font-weight="400" fill="#94a3b8" letter-spacing="0.5">Stream. Split. Submit.</text>
  <rect x="110" y="220" width="90" height="28" rx="14" fill="url(#pill)" stroke="#10b981" stroke-opacity="0.4" stroke-width="1"/>
  <text x="155" y="239" font-family="-apple-system,BlinkMacSystemFont,'Segoe UI',Helvetica,Arial,sans-serif" font-size="13" font-weight="600" fill="#6ee7b7" text-anchor="middle">Streaming</text>
  <rect x="210" y="220" width="104" height="28" rx="14" fill="url(#pill)" stroke="#10b981" stroke-opacity="0.4" stroke-width="1"/>
  <text x="262" y="239" font-family="-apple-system,BlinkMacSystemFont,'Segoe UI',Helvetica,Arial,sans-serif" font-size="13" font-weight="600" fill="#6ee7b7" text-anchor="middle">100k+ URLs</text>
  <rect x="324" y="220" width="158" height="28" rx="14" fill="url(#pill)" stroke="#6ee7b7" stroke-opacity="0.4" stroke-width="1"/>
  <text x="403" y="239" font-family="-apple-system,BlinkMacSystemFont,'Segoe UI',Helvetica,Arial,sans-serif" font-size="13" font-weight="600" fill="#a7f3d0" text-anchor="middle">Image · Video · News</text>
  <rect x="492" y="220" width="138" height="28" rx="14" fill="url(#pill)" stroke="#6ee7b7" stroke-opacity="0.4" stroke-width="1"/>
  <text x="561" y="239" font-family="-apple-system,BlinkMacSystemFont,'Segoe UI',Helvetica,Arial,sans-serif" font-size="13" font-weight="600" fill="#a7f3d0" text-anchor="middle">TypeScript-first</text>
</svg>
