<svg xmlns="http://www.w3.org/2000/svg" viewBox="0 0 1280 280" width="1280" height="280">
  <defs>
    <linearGradient id="bg" x1="0%" y1="0%" x2="100%" y2="100%">
      <stop offset="0%" style="stop-color:#0f172a"/>
      <stop offset="100%" style="stop-color:#1e1b4b"/>
    </linearGradient>
    <linearGradient id="accent" x1="0%" y1="0%" x2="100%" y2="0%">
      <stop offset="0%" style="stop-color:#4285f4"/>
      <stop offset="100%" style="stop-color:#93c5fd"/>
    </linearGradient>
    <linearGradient id="pill" x1="0%" y1="0%" x2="100%" y2="0%">
      <stop offset="0%" style="stop-color:#4285f4;stop-opacity:0.2"/>
      <stop offset="100%" style="stop-color:#93c5fd;stop-opacity:0.2"/>
    </linearGradient>
  </defs>
  <rect width="1280" height="280" fill="url(#bg)" rx="12"/>
  <g stroke="#ffffff" stroke-opacity="0.03" stroke-width="1">
    <line x1="0" y1="56" x2="1280" y2="56"/>
    <line x1="0" y1="112" x2="1280" y2="112"/>
    <line x1="0" y1="168" x2="1280" y2="168"/>
    <line x1="0" y1="224" x2="1280" y2="224"/>
    <line x1="256" y1="0" x2="256" y2="280"/>
    <line x1="512" y1="0" x2="512" y2="280"/>
    <line x1="768" y1="0" x2="768" y2="280"/>
    <line x1="1024" y1="0" x2="1024" y2="280"/>
  </g>
  <circle cx="1180" cy="60" r="90" fill="#4285f4" fill-opacity="0.06"/>
  <circle cx="1220" cy="30" r="50" fill="#93c5fd" fill-opacity="0.06"/>
  <circle cx="80" cy="230" r="70" fill="#4285f4" fill-opacity="0.05"/>
  <rect x="80" y="96" width="6" height="88" rx="3" fill="url(#accent)"/>
  <text x="108" y="158" font-family="-apple-system,BlinkMacSystemFont,'Segoe UI',Helvetica,Arial,sans-serif" font-size="48" font-weight="800" letter-spacing="-2" fill="url(#accent)">@power-seo/search-console</text>
  <text x="110" y="195" font-family="-apple-system,BlinkMacSystemFont,'Segoe UI',Helvetica,Arial,sans-serif" font-size="20" font-weight="400" fill="#94a3b8" letter-spacing="0.5">Query, inspect, manage. Full GSC API in TypeScript.</text>
  <rect x="110" y="220" width="134" height="28" rx="14" fill="url(#pill)" stroke="#4285f4" stroke-opacity="0.4" stroke-width="1"/>
  <text x="177" y="239" font-family="-apple-system,BlinkMacSystemFont,'Segoe UI',Helvetica,Arial,sans-serif" font-size="13" font-weight="600" fill="#93c5fd" text-anchor="middle">Auto-pagination</text>
  <rect x="254" y="220" width="108" height="28" rx="14" fill="url(#pill)" stroke="#4285f4" stroke-opacity="0.4" stroke-width="1"/>
  <text x="308" y="239" font-family="-apple-system,BlinkMacSystemFont,'Segoe UI',Helvetica,Arial,sans-serif" font-size="13" font-weight="600" fill="#93c5fd" text-anchor="middle">Rate-limited</text>
  <rect x="372" y="220" width="76" height="28" rx="14" fill="url(#pill)" stroke="#93c5fd" stroke-opacity="0.4" stroke-width="1"/>
  <text x="410" y="239" font-family="-apple-system,BlinkMacSystemFont,'Segoe UI',Helvetica,Arial,sans-serif" font-size="13" font-weight="600" fill="#bfdbfe" text-anchor="middle">OAuth2</text>
  <rect x="458" y="220" width="138" height="28" rx="14" fill="url(#pill)" stroke="#93c5fd" stroke-opacity="0.4" stroke-width="1"/>
  <text x="527" y="239" font-family="-apple-system,BlinkMacSystemFont,'Segoe UI',Helvetica,Arial,sans-serif" font-size="13" font-weight="600" fill="#bfdbfe" text-anchor="middle">TypeScript-first</text>
</svg>
