<svg width="900" height="500" viewBox="0 0 900 500" xmlns="http://www.w3.org/2000/svg" font-family="'Segoe UI', Inter, sans-serif">
  <rect width="900" height="500" fill="#0d1117"/>
  <text x="450" y="36" font-family="'Segoe UI', sans-serif" font-size="18" fill="white" text-anchor="middle" font-weight="600">GSC Data Drives Rankings — Track Every Query</text>
  <!-- Chart area -->
  <rect x="60" y="56" width="780" height="290" rx="8" fill="#161b22"/>
  <!-- Grid lines -->
  <line x1="110" y1="80" x2="820" y2="80" stroke="#1e2430" stroke-width="1"/>
  <line x1="110" y1="120" x2="820" y2="120" stroke="#1e2430" stroke-width="1"/>
  <line x1="110" y1="160" x2="820" y2="160" stroke="#1e2430" stroke-width="1"/>
  <line x1="110" y1="200" x2="820" y2="200" stroke="#1e2430" stroke-width="1"/>
  <line x1="110" y1="240" x2="820" y2="240" stroke="#1e2430" stroke-width="1"/>
  <line x1="110" y1="280" x2="820" y2="280" stroke="#1e2430" stroke-width="1"/>
  <line x1="110" y1="320" x2="820" y2="320" stroke="#1e2430" stroke-width="1"/>
  <!-- Y axis labels -->
  <text x="105" y="84" font-family="'Segoe UI', sans-serif" font-size="10" fill="#6b7280" text-anchor="end">5K</text>
  <text x="105" y="124" font-family="'Segoe UI', sans-serif" font-size="10" fill="#6b7280" text-anchor="end">4K</text>
  <text x="105" y="164" font-family="'Segoe UI', sans-serif" font-size="10" fill="#6b7280" text-anchor="end">3K</text>
  <text x="105" y="204" font-family="'Segoe UI', sans-serif" font-size="10" fill="#6b7280" text-anchor="end">2K</text>
  <text x="105" y="244" font-family="'Segoe UI', sans-serif" font-size="10" fill="#6b7280" text-anchor="end">1K</text>
  <text x="105" y="284" font-family="'Segoe UI', sans-serif" font-size="10" fill="#6b7280" text-anchor="end">500</text>
  <text x="105" y="324" font-family="'Segoe UI', sans-serif" font-size="10" fill="#6b7280" text-anchor="end">0</text>
  <!-- X axis months -->
  <text x="165" y="340" font-family="'Segoe UI', sans-serif" font-size="10" fill="#6b7280" text-anchor="middle">Jan</text>
  <text x="275" y="340" font-family="'Segoe UI', sans-serif" font-size="10" fill="#6b7280" text-anchor="middle">Feb</text>
  <text x="385" y="340" font-family="'Segoe UI', sans-serif" font-size="10" fill="#6b7280" text-anchor="middle">Mar</text>
  <text x="495" y="340" font-family="'Segoe UI', sans-serif" font-size="10" fill="#6b7280" text-anchor="middle">Apr</text>
  <text x="605" y="340" font-family="'Segoe UI', sans-serif" font-size="10" fill="#6b7280" text-anchor="middle">May</text>
  <text x="715" y="340" font-family="'Segoe UI', sans-serif" font-size="10" fill="#6b7280" text-anchor="middle">Jun</text>
  <!-- GSC-data-informed optimization marker -->
  <line x1="385" y1="70" x2="385" y2="330" stroke="#4285f4" stroke-width="1.5" stroke-dasharray="4,3"/>
  <rect x="390" y="76" width="130" height="18" rx="4" fill="#0a1628"/>
  <text x="455" y="89" font-family="'Segoe UI', sans-serif" font-size="11" fill="#4285f4" text-anchor="middle">GSC data connected</text>
  <!-- Clicks line (blue, rising) -->
  <polyline points="165,300 275,285 385,270 495,220 605,160 715,100" stroke="#4285f4" stroke-width="3" fill="none" stroke-linejoin="round"/>
  <circle cx="715" cy="100" r="5" fill="#4285f4"/>
  <rect x="640" y="84" width="160" height="18" rx="4" fill="#0a1628"/>
  <text x="720" y="97" font-family="'Segoe UI', sans-serif" font-size="11" fill="#4285f4" text-anchor="middle">Clicks: +280% in 6mo</text>
  <!-- Impressions line (green, rising) -->
  <polyline points="165,290 275,270 385,240 495,190 605,130 715,82" stroke="#34a853" stroke-width="2" fill="none" stroke-dasharray="6,3" stroke-linejoin="round"/>
  <circle cx="715" cy="82" r="5" fill="#34a853"/>
  <!-- Legend -->
  <line x1="130" y1="100" x2="160" y2="100" stroke="#4285f4" stroke-width="3"/>
  <text x="170" y="104" font-family="'Segoe UI', sans-serif" font-size="11" fill="#4285f4">Organic clicks (with GSC optimization)</text>
  <line x1="130" y1="124" x2="160" y2="124" stroke="#34a853" stroke-width="2" stroke-dasharray="5,3"/>
  <text x="170" y="128" font-family="'Segoe UI', sans-serif" font-size="11" fill="#34a853">Impressions (query discovery)</text>
  <!-- KPI cards -->
  <rect x="80" y="370" width="200" height="68" rx="8" fill="#161b22"/>
  <text x="180" y="396" font-family="'Segoe UI', sans-serif" font-size="12" fill="#6b7280" text-anchor="middle">Click growth (6 months)</text>
  <text x="180" y="424" font-family="'Segoe UI', sans-serif" font-size="24" fill="#4285f4" text-anchor="middle" font-weight="700">+280%</text>
  <rect x="350" y="370" width="200" height="68" rx="8" fill="#161b22"/>
  <text x="450" y="396" font-family="'Segoe UI', sans-serif" font-size="12" fill="#6b7280" text-anchor="middle">Queries discovered</text>
  <text x="450" y="424" font-family="'Segoe UI', sans-serif" font-size="24" fill="#34a853" text-anchor="middle" font-weight="700">62K+</text>
  <rect x="620" y="370" width="200" height="68" rx="8" fill="#0a1628"/>
  <text x="720" y="396" font-family="'Segoe UI', sans-serif" font-size="12" fill="#6b7280" text-anchor="middle">Avg position gain</text>
  <text x="720" y="424" font-family="'Segoe UI', sans-serif" font-size="24" fill="#4285f4" text-anchor="middle" font-weight="700">4.3 → 2.1</text>
</svg>
