<svg width="900" height="500" viewBox="0 0 900 500" xmlns="http://www.w3.org/2000/svg" font-family="'Segoe UI', Inter, sans-serif">
  <rect width="900" height="500" fill="#0d1117"/>
  <text x="450" y="42" font-family="'Segoe UI', sans-serif" font-size="20" fill="white" text-anchor="middle" font-weight="600">React SEO Component Comparison</text>
  <!-- Headers -->
  <rect x="30" y="58" width="188" height="38" rx="6" fill="#61dafb" opacity="0.9"/>
  <text x="124" y="82" font-family="'Segoe UI', sans-serif" font-size="13" fill="#0d1117" text-anchor="middle" font-weight="700">@power-seo/react</text>
  <rect x="233" y="58" width="145" height="38" rx="6" fill="#1e2430"/>
  <text x="305" y="82" font-family="'Segoe UI', sans-serif" font-size="13" fill="#94a3b8" text-anchor="middle">react-helmet</text>
  <rect x="393" y="58" width="168" height="38" rx="6" fill="#1e2430"/>
  <text x="477" y="82" font-family="'Segoe UI', sans-serif" font-size="13" fill="#94a3b8" text-anchor="middle">react-helmet-async</text>
  <rect x="576" y="58" width="140" height="38" rx="6" fill="#1e2430"/>
  <text x="646" y="82" font-family="'Segoe UI', sans-serif" font-size="13" fill="#94a3b8" text-anchor="middle">next-seo</text>
  <rect x="731" y="58" width="139" height="38" rx="6" fill="#1e2430"/>
  <text x="800" y="82" font-family="'Segoe UI', sans-serif" font-size="13" fill="#94a3b8" text-anchor="middle">Helmet Async 2</text>
  <!-- Rows -->
  <rect x="0" y="108" width="900" height="36" fill="#0f1621"/>
  <text x="870" y="131" font-family="'Segoe UI', sans-serif" font-size="13" fill="#e2e8f0" text-anchor="end">Maintained / active</text>
  <text x="124" y="131" font-size="18" fill="#61dafb" text-anchor="middle">✓</text>
  <text x="305" y="131" font-size="18" fill="#ef4444" text-anchor="middle">✗</text>
  <text x="477" y="131" font-size="16" fill="#94a3b8" text-anchor="middle">slow</text>
  <text x="646" y="131" font-size="18" fill="#61dafb" text-anchor="middle">✓</text>
  <text x="800" y="131" font-size="16" fill="#94a3b8" text-anchor="middle">limited</text>
  <rect x="0" y="144" width="900" height="36" fill="#161b22"/>
  <text x="870" y="167" font-family="'Segoe UI', sans-serif" font-size="13" fill="#e2e8f0" text-anchor="end">SSR compatible</text>
  <text x="124" y="167" font-size="18" fill="#61dafb" text-anchor="middle">✓</text>
  <text x="305" y="167" font-size="18" fill="#ef4444" text-anchor="middle">✗</text>
  <text x="477" y="167" font-size="18" fill="#61dafb" text-anchor="middle">✓</text>
  <text x="646" y="167" font-size="18" fill="#61dafb" text-anchor="middle">✓</text>
  <text x="800" y="167" font-size="18" fill="#61dafb" text-anchor="middle">✓</text>
  <rect x="0" y="180" width="900" height="36" fill="#0f1621"/>
  <text x="870" y="203" font-family="'Segoe UI', sans-serif" font-size="13" fill="#e2e8f0" text-anchor="end">OG tag support</text>
  <text x="124" y="203" font-size="18" fill="#61dafb" text-anchor="middle">✓</text>
  <text x="305" y="203" font-size="18" fill="#61dafb" text-anchor="middle">✓</text>
  <text x="477" y="203" font-size="18" fill="#ef4444" text-anchor="middle">✗</text>
  <text x="646" y="203" font-size="18" fill="#61dafb" text-anchor="middle">✓</text>
  <text x="800" y="203" font-size="18" fill="#ef4444" text-anchor="middle">✗</text>
  <rect x="0" y="216" width="900" height="36" fill="#161b22"/>
  <text x="870" y="239" font-family="'Segoe UI', sans-serif" font-size="13" fill="#e2e8f0" text-anchor="end">Schema / JSON-LD</text>
  <text x="124" y="239" font-size="18" fill="#61dafb" text-anchor="middle">✓</text>
  <text x="305" y="239" font-size="18" fill="#ef4444" text-anchor="middle">✗</text>
  <text x="477" y="239" font-size="18" fill="#ef4444" text-anchor="middle">✗</text>
  <text x="646" y="239" font-size="16" fill="#94a3b8" text-anchor="middle">partial</text>
  <text x="800" y="239" font-size="18" fill="#ef4444" text-anchor="middle">✗</text>
  <rect x="0" y="252" width="900" height="36" fill="#0f1621"/>
  <text x="870" y="275" font-family="'Segoe UI', sans-serif" font-size="13" fill="#e2e8f0" text-anchor="end">Remix support</text>
  <text x="124" y="275" font-size="18" fill="#61dafb" text-anchor="middle">✓</text>
  <text x="305" y="275" font-size="18" fill="#61dafb" text-anchor="middle">✓</text>
  <text x="477" y="275" font-size="18" fill="#61dafb" text-anchor="middle">✓</text>
  <text x="646" y="275" font-size="18" fill="#ef4444" text-anchor="middle">✗</text>
  <text x="800" y="275" font-size="18" fill="#61dafb" text-anchor="middle">✓</text>
  <rect x="0" y="288" width="900" height="36" fill="#161b22"/>
  <text x="870" y="311" font-family="'Segoe UI', sans-serif" font-size="13" fill="#e2e8f0" text-anchor="end">TypeScript native</text>
  <text x="124" y="311" font-size="18" fill="#61dafb" text-anchor="middle">✓</text>
  <text x="305" y="311" font-size="18" fill="#ef4444" text-anchor="middle">✗</text>
  <text x="477" y="311" font-size="16" fill="#94a3b8" text-anchor="middle">partial</text>
  <text x="646" y="311" font-size="18" fill="#61dafb" text-anchor="middle">✓</text>
  <text x="800" y="311" font-size="16" fill="#94a3b8" text-anchor="middle">partial</text>
  <!-- Dividers -->
  <line x1="218" y1="58" x2="218" y2="336" stroke="#1e2430" stroke-width="1"/>
  <line x1="377" y1="58" x2="377" y2="336" stroke="#1e2430" stroke-width="1"/>
  <line x1="560" y1="58" x2="560" y2="336" stroke="#1e2430" stroke-width="1"/>
  <line x1="715" y1="58" x2="715" y2="336" stroke="#1e2430" stroke-width="1"/>
  <line x1="870" y1="58" x2="870" y2="336" stroke="#1e2430" stroke-width="1"/>
  <text x="450" y="372" font-family="'Segoe UI', sans-serif" font-size="16" fill="white" text-anchor="middle" font-weight="600">The React SEO component that works everywhere.</text>
  <text x="450" y="396" font-family="'Segoe UI', sans-serif" font-size="13" fill="#6b7280" text-anchor="middle">Active · SSR · OG + Schema + Twitter · Next.js + Remix + Gatsby · TypeScript</text>
</svg>