<svg width="900" height="500" viewBox="0 0 900 500" xmlns="http://www.w3.org/2000/svg" font-family="'Segoe UI', Inter, sans-serif">
  <rect width="900" height="500" fill="#0d1117"/>
  <!-- Dashboard panel -->
  <rect x="20" y="20" width="860" height="460" rx="10" fill="#161b22"/>
  <rect x="20" y="20" width="860" height="48" rx="10" fill="#1e2430"/>
  <rect x="20" y="56" width="860" height="12" fill="#1e2430"/>
  <text x="50" y="51" font-family="'Segoe UI', sans-serif" font-size="16" fill="white" font-weight="600">Internal Link Analysis</text>
  <rect x="720" y="30" width="140" height="28" rx="4" fill="#f59e0b"/>
  <text x="790" y="49" font-family="'Segoe UI', sans-serif" font-size="12" fill="white" text-anchor="middle">Run Analysis</text>
  <!-- KPI cards -->
  <rect x="36" y="88" width="240" height="74" rx="8" fill="#0d1117"/>
  <text x="56" y="114" font-family="'Segoe UI', sans-serif" font-size="12" fill="#6b7280">Orphan Pages</text>
  <text x="56" y="144" font-family="'Segoe UI', sans-serif" font-size="28" fill="#ef4444" font-weight="700">23</text>
  <text x="118" y="144" font-family="'Segoe UI', sans-serif" font-size="13" fill="#ef4444"> pages with 0 inbound</text>
  <rect x="292" y="88" width="240" height="74" rx="8" fill="#0d1117"/>
  <text x="312" y="114" font-family="'Segoe UI', sans-serif" font-size="12" fill="#6b7280">Top Page Equity</text>
  <text x="312" y="144" font-family="'Segoe UI', sans-serif" font-size="28" fill="#f59e0b" font-weight="700">84</text>
  <text x="345" y="144" font-family="'Segoe UI', sans-serif" font-size="13" fill="#f59e0b"> / 100 score</text>
  <rect x="548" y="88" width="316" height="74" rx="8" fill="#0d1117"/>
  <text x="568" y="114" font-family="'Segoe UI', sans-serif" font-size="12" fill="#6b7280">Link Opportunities</text>
  <text x="568" y="144" font-family="'Segoe UI', sans-serif" font-size="28" fill="#22c55e" font-weight="700">47</text>
  <text x="609" y="144" font-family="'Segoe UI', sans-serif" font-size="13" fill="#22c55e"> suggestions available</text>
  <!-- Table section -->
  <text x="36" y="192" font-family="'Segoe UI', sans-serif" font-size="14" fill="white" font-weight="600">Page Equity Scores</text>
  <!-- Table header -->
  <rect x="36" y="202" width="490" height="28" fill="#1e2430"/>
  <text x="50" y="220" font-family="'Segoe UI', sans-serif" font-size="11" fill="#6b7280">Page URL</text>
  <text x="300" y="220" font-family="'Segoe UI', sans-serif" font-size="11" fill="#6b7280">Inbound Links</text>
  <text x="430" y="220" font-family="'Segoe UI', sans-serif" font-size="11" fill="#6b7280">Equity Score</text>
  <!-- Table rows -->
  <rect x="36" y="230" width="490" height="34" fill="#0f1621"/>
  <text x="50" y="251" font-family="'Courier New', monospace" font-size="12" fill="#38bdf8">/blog/ts-seo-guide</text>
  <text x="315" y="251" font-family="'Segoe UI', sans-serif" font-size="12" fill="#e2e8f0">14</text>
  <rect x="430" y="235" width="84" height="18" rx="2" fill="#f59e0b" opacity="0.2"/>
  <text x="472" y="248" font-family="'Segoe UI', sans-serif" font-size="12" fill="#f59e0b" text-anchor="middle">84/100</text>
  <rect x="36" y="264" width="490" height="34" fill="#161b22"/>
  <text x="50" y="285" font-family="'Courier New', monospace" font-size="12" fill="#38bdf8">/docs/getting-started</text>
  <text x="315" y="285" font-family="'Segoe UI', sans-serif" font-size="12" fill="#e2e8f0">9</text>
  <rect x="430" y="270" width="84" height="18" rx="2" fill="#22c55e" opacity="0.2"/>
  <text x="472" y="283" font-family="'Segoe UI', sans-serif" font-size="12" fill="#22c55e" text-anchor="middle">72/100</text>
  <rect x="36" y="298" width="490" height="34" fill="#0f1621"/>
  <text x="50" y="319" font-family="'Courier New', monospace" font-size="12" fill="#38bdf8">/about</text>
  <text x="315" y="319" font-family="'Segoe UI', sans-serif" font-size="12" fill="#e2e8f0">7</text>
  <rect x="430" y="304" width="84" height="18" rx="2" fill="#22c55e" opacity="0.2"/>
  <text x="472" y="317" font-family="'Segoe UI', sans-serif" font-size="12" fill="#22c55e" text-anchor="middle">65/100</text>
  <rect x="36" y="332" width="490" height="34" fill="#161b22"/>
  <text x="50" y="353" font-family="'Courier New', monospace" font-size="12" fill="#fca5a5">/old-post-archived</text>
  <text x="315" y="353" font-family="'Segoe UI', sans-serif" font-size="12" fill="#ef4444">0</text>
  <rect x="430" y="338" width="84" height="18" rx="2" fill="#ef4444" opacity="0.2"/>
  <text x="472" y="351" font-family="'Segoe UI', sans-serif" font-size="12" fill="#ef4444" text-anchor="middle">0/100 ⚠</text>
  <!-- Link opportunities -->
  <text x="560" y="192" font-family="'Segoe UI', sans-serif" font-size="14" fill="white" font-weight="600">Top Link Opportunities</text>
  <rect x="548" y="202" width="316" height="78" rx="6" fill="#0d1117"/>
  <text x="564" y="222" font-family="'Segoe UI', sans-serif" font-size="11" fill="#6b7280">/blog/ts-seo-guide → /schema</text>
  <text x="564" y="240" font-family="'Segoe UI', sans-serif" font-size="11" fill="#e2e8f0">"Learn about schema types" — natural anchor</text>
  <rect x="726" y="254" width="100" height="22" rx="4" fill="#f59e0b"/>
  <text x="776" y="269" font-family="'Segoe UI', sans-serif" font-size="11" fill="white" text-anchor="middle">Suggest Link</text>
  <rect x="548" y="286" width="316" height="78" rx="6" fill="#0d1117"/>
  <text x="564" y="306" font-family="'Segoe UI', sans-serif" font-size="11" fill="#6b7280">/docs/getting-started → /old-post-archived</text>
  <text x="564" y="324" font-family="'Segoe UI', sans-serif" font-size="11" fill="#e2e8f0">Link to resolve orphan — equity gain +12pts</text>
  <rect x="726" y="338" width="100" height="22" rx="4" fill="#f59e0b"/>
  <text x="776" y="353" font-family="'Segoe UI', sans-serif" font-size="11" fill="white" text-anchor="middle">Suggest Link</text>
  <!-- Caption -->
  <text x="450" y="456" font-family="'Segoe UI', sans-serif" font-size="13" fill="#f59e0b" text-anchor="middle">@power-seo/links — analyzeSite() · calculatePageRank() · findOrphanPages() · suggestLinks()</text>
</svg>