<svg width="900" height="500" viewBox="0 0 900 500" xmlns="http://www.w3.org/2000/svg" font-family="'Segoe UI', Inter, sans-serif">
  <rect width="900" height="500" fill="#0d1117"/>
  <!-- Divider -->
  <line x1="450" y1="20" x2="450" y2="460" stroke="#f59e0b" stroke-width="2"/>
  <!-- Before label -->
  <text x="225" y="42" font-family="'Segoe UI', sans-serif" font-size="18" fill="#ef4444" text-anchor="middle" font-weight="700">Before</text>
  <!-- After label -->
  <text x="675" y="42" font-family="'Segoe UI', sans-serif" font-size="18" fill="#22c55e" text-anchor="middle" font-weight="700">After</text>
  <!-- Before: scattered red orphan nodes -->
  <!-- Main cluster (small) -->
  <circle cx="225" cy="160" r="18" fill="#1e2430" stroke="#4b5563" stroke-width="1.5"/>
  <text x="225" y="164" font-family="'Courier New', monospace" font-size="8" fill="#94a3b8" text-anchor="middle">Home</text>
  <circle cx="165" cy="220" r="14" fill="#1e2430" stroke="#4b5563" stroke-width="1"/>
  <text x="165" y="224" font-family="'Courier New', monospace" font-size="8" fill="#94a3b8" text-anchor="middle">Blog</text>
  <circle cx="285" cy="220" r="14" fill="#1e2430" stroke="#4b5563" stroke-width="1"/>
  <text x="285" y="224" font-family="'Courier New', monospace" font-size="8" fill="#94a3b8" text-anchor="middle">Docs</text>
  <line x1="225" y1="160" x2="165" y2="220" stroke="#4b5563" stroke-width="1"/>
  <line x1="225" y1="160" x2="285" y2="220" stroke="#4b5563" stroke-width="1"/>
  <!-- Orphan nodes -->
  <circle cx="70" cy="130" r="14" fill="#1e2430" stroke="#ef4444" stroke-width="2"/>
  <text x="70" y="134" font-family="'Courier New', monospace" font-size="7" fill="#fca5a5" text-anchor="middle">/orphan</text>
  <circle cx="370" cy="110" r="14" fill="#1e2430" stroke="#ef4444" stroke-width="2"/>
  <text x="370" y="114" font-family="'Courier New', monospace" font-size="7" fill="#fca5a5" text-anchor="middle">/orphan</text>
  <circle cx="60" cy="300" r="14" fill="#1e2430" stroke="#ef4444" stroke-width="2"/>
  <text x="60" y="304" font-family="'Courier New', monospace" font-size="7" fill="#fca5a5" text-anchor="middle">/orphan</text>
  <circle cx="390" cy="320" r="14" fill="#1e2430" stroke="#ef4444" stroke-width="2"/>
  <text x="390" y="324" font-family="'Courier New', monospace" font-size="7" fill="#fca5a5" text-anchor="middle">/orphan</text>
  <circle cx="130" cy="380" r="14" fill="#1e2430" stroke="#ef4444" stroke-width="2"/>
  <text x="130" y="384" font-family="'Courier New', monospace" font-size="7" fill="#fca5a5" text-anchor="middle">/orphan</text>
  <circle cx="320" cy="400" r="14" fill="#1e2430" stroke="#ef4444" stroke-width="2"/>
  <text x="320" y="404" font-family="'Courier New', monospace" font-size="7" fill="#fca5a5" text-anchor="middle">/orphan</text>
  <circle cx="200" cy="340" r="14" fill="#1e2430" stroke="#ef4444" stroke-width="2"/>
  <text x="200" y="344" font-family="'Courier New', monospace" font-size="7" fill="#fca5a5" text-anchor="middle">/orphan</text>
  <!-- Before label -->
  <rect x="60" y="78" width="330" height="28" rx="4" fill="#7f1d1d" opacity="0.7"/>
  <text x="225" y="97" font-family="'Segoe UI', sans-serif" font-size="12" fill="#ef4444" text-anchor="middle">23 orphan pages — no inbound links</text>
  <!-- After: connected with amber lines -->
  <!-- Main cluster (larger) -->
  <circle cx="675" cy="160" r="18" fill="#1e2430" stroke="#f59e0b" stroke-width="2"/>
  <text x="675" y="164" font-family="'Courier New', monospace" font-size="8" fill="#e2e8f0" text-anchor="middle">Home</text>
  <circle cx="615" cy="230" r="14" fill="#1e2430" stroke="#f59e0b" stroke-width="1.5"/>
  <text x="615" y="234" font-family="'Courier New', monospace" font-size="8" fill="#e2e8f0" text-anchor="middle">Blog</text>
  <circle cx="735" cy="230" r="14" fill="#1e2430" stroke="#f59e0b" stroke-width="1.5"/>
  <text x="735" y="234" font-family="'Courier New', monospace" font-size="8" fill="#e2e8f0" text-anchor="middle">Docs</text>
  <!-- Previously orphan nodes, now connected (green-filled) -->
  <circle cx="520" cy="120" r="14" fill="#14532d" stroke="#22c55e" stroke-width="2"/>
  <text x="520" y="124" font-family="'Courier New', monospace" font-size="7" fill="#86efac" text-anchor="middle">/linked</text>
  <circle cx="830" cy="100" r="14" fill="#14532d" stroke="#22c55e" stroke-width="2"/>
  <text x="830" y="104" font-family="'Courier New', monospace" font-size="7" fill="#86efac" text-anchor="middle">/linked</text>
  <circle cx="510" cy="310" r="14" fill="#14532d" stroke="#22c55e" stroke-width="2"/>
  <text x="510" y="314" font-family="'Courier New', monospace" font-size="7" fill="#86efac" text-anchor="middle">/linked</text>
  <circle cx="840" cy="330" r="14" fill="#14532d" stroke="#22c55e" stroke-width="2"/>
  <text x="840" y="334" font-family="'Courier New', monospace" font-size="7" fill="#86efac" text-anchor="middle">/linked</text>
  <circle cx="580" cy="390" r="14" fill="#14532d" stroke="#22c55e" stroke-width="2"/>
  <text x="580" y="394" font-family="'Courier New', monospace" font-size="7" fill="#86efac" text-anchor="middle">/linked</text>
  <circle cx="770" cy="400" r="14" fill="#14532d" stroke="#22c55e" stroke-width="2"/>
  <text x="770" y="404" font-family="'Courier New', monospace" font-size="7" fill="#86efac" text-anchor="middle">/linked</text>
  <circle cx="650" cy="360" r="14" fill="#14532d" stroke="#22c55e" stroke-width="2"/>
  <text x="650" y="364" font-family="'Courier New', monospace" font-size="7" fill="#86efac" text-anchor="middle">/linked</text>
  <!-- Amber connecting links -->
  <line x1="675" y1="160" x2="520" y2="120" stroke="#f59e0b" stroke-width="1.5" opacity="0.8"/>
  <line x1="675" y1="160" x2="830" y2="100" stroke="#f59e0b" stroke-width="1.5" opacity="0.8"/>
  <line x1="615" y1="230" x2="510" y2="310" stroke="#f59e0b" stroke-width="1.5" opacity="0.8"/>
  <line x1="735" y1="230" x2="840" y2="330" stroke="#f59e0b" stroke-width="1.5" opacity="0.8"/>
  <line x1="615" y1="230" x2="580" y2="390" stroke="#f59e0b" stroke-width="1.5" opacity="0.8"/>
  <line x1="735" y1="230" x2="770" y2="400" stroke="#f59e0b" stroke-width="1.5" opacity="0.8"/>
  <line x1="675" y1="160" x2="650" y2="360" stroke="#f59e0b" stroke-width="1.5" opacity="0.8"/>
  <line x1="675" y1="160" x2="615" y2="230" stroke="#f59e0b" stroke-width="2"/>
  <line x1="675" y1="160" x2="735" y2="230" stroke="#f59e0b" stroke-width="2"/>
  <!-- After label -->
  <rect x="510" y="78" width="330" height="28" rx="4" fill="#14532d" opacity="0.7"/>
  <text x="675" y="97" font-family="'Segoe UI', sans-serif" font-size="12" fill="#22c55e" text-anchor="middle">23 pages linked — equity flowing</text>
  <!-- Caption -->
  <text x="450" y="476" font-family="'Segoe UI', sans-serif" font-size="15" fill="white" text-anchor="middle" font-weight="600">Orphan pages recovered. Equity redistributed.</text>
</svg>