<svg width="1200" height="630" viewBox="0 0 1200 630" xmlns="http://www.w3.org/2000/svg" font-family="'Segoe UI', Inter, sans-serif">
  <rect width="1200" height="630" fill="#0d1117"/>
  <!-- Left code panel -->
  <rect x="40" y="60" width="520" height="510" rx="8" fill="#161b22"/>
  <rect x="40" y="60" width="520" height="32" rx="8" fill="#7c3aed"/>
  <rect x="40" y="80" width="520" height="12" fill="#7c3aed"/>
  <!-- Window dots -->
  <circle cx="62" cy="76" r="6" fill="#ff5f56"/>
  <circle cx="82" cy="76" r="6" fill="#ffbd2e"/>
  <circle cx="102" cy="76" r="6" fill="#27c93f"/>
  <!-- File label -->
  <text x="130" y="81" font-family="'Segoe UI', sans-serif" font-size="13" fill="#e2e8f0">page.tsx</text>
  <!-- Code content -->
  <text x="60" y="122" font-family="'Courier New', monospace" font-size="13" fill="#8b949e">import</text>
  <text x="110" y="122" font-family="'Courier New', monospace" font-size="13" fill="#e2e8f0"> { createMetadata } </text>
  <text x="295" y="122" font-family="'Courier New', monospace" font-size="13" fill="#8b949e">from</text>
  <text x="325" y="122" font-family="'Courier New', monospace" font-size="13" fill="#a5b4fc">'@power-seo/meta'</text>
  <text x="60" y="150" font-family="'Courier New', monospace" font-size="13" fill="#8b949e">const</text>
  <text x="98" y="150" font-family="'Courier New', monospace" font-size="13" fill="#e2e8f0"> metadata = </text>
  <text x="190" y="150" font-family="'Courier New', monospace" font-size="13" fill="#7c3aed">createMetadata</text>
  <text x="308" y="150" font-family="'Courier New', monospace" font-size="13" fill="#e2e8f0">(&#123;</text>
  <text x="76" y="178" font-family="'Courier New', monospace" font-size="13" fill="#a5b4fc">  title</text>
  <text x="120" y="178" font-family="'Courier New', monospace" font-size="13" fill="#e2e8f0">: </text>
  <text x="130" y="178" font-family="'Courier New', monospace" font-size="13" fill="#7ee787">'My Awesome Page'</text>
  <text x="76" y="206" font-family="'Courier New', monospace" font-size="13" fill="#a5b4fc">  description</text>
  <text x="168" y="206" font-family="'Courier New', monospace" font-size="13" fill="#e2e8f0">: </text>
  <text x="178" y="206" font-family="'Courier New', monospace" font-size="13" fill="#7ee787">'Page description'</text>
  <text x="76" y="234" font-family="'Courier New', monospace" font-size="13" fill="#a5b4fc">  og</text>
  <text x="96" y="234" font-family="'Courier New', monospace" font-size="13" fill="#e2e8f0">: &#123;</text>
  <text x="92" y="262" font-family="'Courier New', monospace" font-size="13" fill="#a5b4fc">    image</text>
  <text x="140" y="262" font-family="'Courier New', monospace" font-size="13" fill="#e2e8f0">: </text>
  <text x="150" y="262" font-family="'Courier New', monospace" font-size="13" fill="#7ee787">'/og-image.jpg'</text>
  <text x="92" y="290" font-family="'Courier New', monospace" font-size="13" fill="#a5b4fc">    type</text>
  <text x="132" y="290" font-family="'Courier New', monospace" font-size="13" fill="#e2e8f0">: </text>
  <text x="142" y="290" font-family="'Courier New', monospace" font-size="13" fill="#7ee787">'article'</text>
  <text x="76" y="318" font-family="'Courier New', monospace" font-size="13" fill="#e2e8f0">  &#125;</text>
  <text x="76" y="346" font-family="'Courier New', monospace" font-size="13" fill="#a5b4fc">  framework</text>
  <text x="160" y="346" font-family="'Courier New', monospace" font-size="13" fill="#e2e8f0">: </text>
  <text x="170" y="346" font-family="'Courier New', monospace" font-size="13" fill="#7ee787">'nextjs'</text>
  <text x="60" y="374" font-family="'Courier New', monospace" font-size="13" fill="#e2e8f0">&#125;)</text>
  <!-- TypeScript badge -->
  <rect x="60" y="420" width="100" height="28" rx="4" fill="#7c3aed"/>
  <text x="110" y="439" font-family="'Segoe UI', sans-serif" font-size="12" fill="white" text-anchor="middle">TypeScript</text>
  <rect x="172" y="420" width="120" height="28" rx="4" fill="none" stroke="#7c3aed" stroke-width="1.5"/>
  <text x="232" y="439" font-family="'Segoe UI', sans-serif" font-size="12" fill="#7c3aed" text-anchor="middle">SSR Compatible</text>
  <!-- Vertical divider -->
  <line x1="600" y1="40" x2="600" y2="590" stroke="#7c3aed" stroke-width="1.5" opacity="0.6"/>
  <!-- Right: Browser mockup OG card -->
  <rect x="640" y="80" width="520" height="480" rx="8" fill="#161b22"/>
  <!-- Browser chrome -->
  <rect x="640" y="80" width="520" height="36" rx="8" fill="#1e2430"/>
  <rect x="640" y="104" width="520" height="12" fill="#1e2430"/>
  <circle cx="660" cy="98" r="5" fill="#374151"/>
  <circle cx="678" cy="98" r="5" fill="#374151"/>
  <circle cx="696" cy="98" r="5" fill="#374151"/>
  <!-- Address bar -->
  <rect x="715" y="89" width="340" height="18" rx="9" fill="#0d1117"/>
  <text x="885" y="102" font-family="'Segoe UI', sans-serif" font-size="11" fill="#6b7280" text-anchor="middle">facebook.com/share</text>
  <!-- OG Card -->
  <rect x="660" y="135" width="480" height="260" rx="6" fill="#ffffff"/>
  <rect x="660" y="135" width="480" height="140" rx="6" fill="#4b5563"/>
  <rect x="660" y="261" width="480" height="4" fill="#d1d5db"/>
  <text x="672" y="290" font-family="'Segoe UI', sans-serif" font-size="11" fill="#6b7280">MY-AWESOME-PAGE.COM</text>
  <text x="672" y="315" font-family="'Segoe UI', sans-serif" font-size="18" fill="#0f172a" font-weight="600">My Awesome Page</text>
  <text x="672" y="338" font-family="'Segoe UI', sans-serif" font-size="13" fill="#4b5563">Page description — crafted with @power-seo/meta for perfect social sharing.</text>
  <!-- Small image label in card -->
  <text x="900" y="208" font-family="'Segoe UI', sans-serif" font-size="14" fill="#9ca3af" text-anchor="middle">og:image</text>
  <!-- Facebook like button area -->
  <rect x="660" y="395" width="480" height="36" rx="0" fill="#f0f2f5"/>
  <text x="676" y="418" font-family="'Segoe UI', sans-serif" font-size="12" fill="#65676b">👍 Like    💬 Comment    ↗ Share</text>
  <!-- Result label -->
  <text x="900" y="480" font-family="'Segoe UI', sans-serif" font-size="13" fill="#7c3aed" text-anchor="middle">← OG card generated from one config</text>
  <!-- Bottom tagline -->
  <text x="600" y="566" font-family="'Segoe UI', sans-serif" font-size="22" fill="white" text-anchor="middle" font-weight="600">One config, any SSR framework</text>
  <text x="80" y="600" font-family="'Segoe UI', sans-serif" font-size="14" fill="#7c3aed">@power-seo/meta</text>
  <text x="1120" y="600" font-family="'Segoe UI', sans-serif" font-size="12" fill="#374151" text-anchor="end">v1.0.0</text>
</svg>