<svg width="900" height="500" viewBox="0 0 900 500" xmlns="http://www.w3.org/2000/svg" font-family="'Segoe UI', Inter, sans-serif">
  <rect width="900" height="500" fill="#0d1117"/>
  <!-- Grid lines -->
  <line x1="80" y1="60" x2="80" y2="380" stroke="#1e2430" stroke-width="1"/>
  <line x1="80" y1="380" x2="820" y2="380" stroke="#1e2430" stroke-width="1"/>
  <line x1="80" y1="300" x2="820" y2="300" stroke="#1e2430" stroke-width="1" stroke-dasharray="4,4"/>
  <line x1="80" y1="220" x2="820" y2="220" stroke="#1e2430" stroke-width="1" stroke-dasharray="4,4"/>
  <line x1="80" y1="140" x2="820" y2="140" stroke="#1e2430" stroke-width="1" stroke-dasharray="4,4"/>
  <!-- Y axis labels -->
  <text x="70" y="384" font-family="'Segoe UI', sans-serif" font-size="11" fill="#6b7280" text-anchor="end">0%</text>
  <text x="70" y="304" font-family="'Segoe UI', sans-serif" font-size="11" fill="#6b7280" text-anchor="end">2%</text>
  <text x="70" y="224" font-family="'Segoe UI', sans-serif" font-size="11" fill="#6b7280" text-anchor="end">4%</text>
  <text x="70" y="144" font-family="'Segoe UI', sans-serif" font-size="11" fill="#6b7280" text-anchor="end">6%</text>
  <!-- X axis labels -->
  <text x="200" y="400" font-family="'Segoe UI', sans-serif" font-size="12" fill="#6b7280" text-anchor="middle">Month 1</text>
  <text x="450" y="400" font-family="'Segoe UI', sans-serif" font-size="12" fill="#6b7280" text-anchor="middle">Month 2</text>
  <text x="700" y="400" font-family="'Segoe UI', sans-serif" font-size="12" fill="#6b7280" text-anchor="middle">Month 3</text>
  <!-- Before line (flat red dashed) -->
  <polyline points="200,310 450,308 700,307" stroke="#ef4444" stroke-width="2" fill="none" stroke-dasharray="6,4"/>
  <!-- After line (rising violet solid) -->
  <polyline points="200,310 450,265 700,215" stroke="#7c3aed" stroke-width="3" fill="none"/>
  <!-- Data points -->
  <circle cx="200" cy="310" r="5" fill="#7c3aed"/>
  <circle cx="450" cy="265" r="5" fill="#7c3aed"/>
  <circle cx="700" cy="215" r="5" fill="#7c3aed"/>
  <!-- Shaded area under violet line -->
  <polygon points="200,310 450,265 700,215 700,308 450,308 200,310" fill="#7c3aed" opacity="0.1"/>
  <!-- Legend -->
  <line x1="100" y1="440" x2="140" y2="440" stroke="#ef4444" stroke-width="2" stroke-dasharray="6,4"/>
  <text x="148" y="445" font-family="'Segoe UI', sans-serif" font-size="12" fill="#94a3b8">Before proper OG tags</text>
  <line x1="320" y1="440" x2="360" y2="440" stroke="#7c3aed" stroke-width="3"/>
  <circle cx="340" cy="440" r="4" fill="#7c3aed"/>
  <text x="368" y="445" font-family="'Segoe UI', sans-serif" font-size="12" fill="#94a3b8">After @power-seo/meta</text>
  <!-- Title -->
  <text x="450" y="36" font-family="'Segoe UI', sans-serif" font-size="18" fill="white" text-anchor="middle" font-weight="600">Social Sharing CTR — Before vs After Proper OG Tags</text>
  <!-- ROI Badge -->
  <rect x="620" y="155" width="240" height="50" rx="8" fill="#16a34a" opacity="0.9"/>
  <text x="740" y="176" font-family="'Segoe UI', sans-serif" font-size="13" fill="white" text-anchor="middle" font-weight="700">+34% CTR from</text>
  <text x="740" y="195" font-family="'Segoe UI', sans-serif" font-size="13" fill="white" text-anchor="middle" font-weight="700">social sharing</text>
  <text x="450" y="480" font-family="'Segoe UI', sans-serif" font-size="13" fill="#6b7280" text-anchor="middle">Proper OG tags dramatically improve how your links appear on social platforms</text>
</svg>